<?xml version="1.0" encoding="UTF-8" standalone="no"?><svg xmlns="http://www.w3.org/2000/svg" xmlns:xlink="http://www.w3.org/1999/xlink" contentStyleType="text/css" height="763px" preserveAspectRatio="none" style="width:696px;height:763px;background:#FFFFFF;" version="1.1" viewBox="0 0 696 763" width="696px" zoomAndPan="magnify"><defs/><g><path d="M178.5,10 L178.5,26.1328 L158.5,30.1328 L178.5,34.1328 L178.5,50.2656 A0,0 0 0 0 178.5,50.2656 L684.5,50.2656 A0,0 0 0 0 684.5,50.2656 L684.5,20 L674.5,10 L178.5,10 A0,0 0 0 0 178.5,10 " fill="#FEFFDD" style="stroke:#181818;stroke-width:0.5;"/><path d="M674.5,10 L674.5,20 L684.5,20 L674.5,10 " fill="#FEFFDD" style="stroke:#181818;stroke-width:0.5;"/><text fill="#000000" font-family="sans-serif" font-size="13" lengthAdjust="spacing" textLength="485" x="184.5" y="27.0669">constructor ChangeLoggingListValueBytesStore(final KeyValueStore&lt;Bytes,</text><text fill="#000000" font-family="sans-serif" font-size="13" lengthAdjust="spacing" textLength="86" x="184.5" y="42.1997">byte[]&gt;inner)</text><ellipse cx="148.5" cy="30.1328" fill="#222222" rx="10" ry="10" style="stroke:#222222;stroke-width:1.0;"/><rect fill="#F1F1F1" height="33.9688" rx="12.5" ry="12.5" style="stroke:#181818;stroke-width:0.5;" width="106" x="95.5" y="70.2656"/><text fill="#000000" font-family="sans-serif" font-size="12" lengthAdjust="spacing" textLength="86" x="105.5" y="91.4043">super (inner);</text><ellipse cx="148.5" cy="134.2344" fill="none" rx="10" ry="10" style="stroke:#222222;stroke-width:1.5;"/><line style="stroke:#222222;stroke-width:2.5;" x1="142.3128" x2="154.6872" y1="128.0472" y2="140.4216"/><line style="stroke:#222222;stroke-width:2.5;" x1="154.6872" x2="142.3128" y1="128.0472" y2="140.4216"/><path d="M178.5,154.2344 L178.5,162.8008 L158.5,166.8008 L178.5,170.8008 L178.5,179.3672 A0,0 0 0 0 178.5,179.3672 L454.5,179.3672 A0,0 0 0 0 454.5,179.3672 L454.5,164.2344 L444.5,154.2344 L178.5,154.2344 A0,0 0 0 0 178.5,154.2344 " fill="#FEFFDD" style="stroke:#181818;stroke-width:0.5;"/><path d="M444.5,154.2344 L444.5,164.2344 L454.5,164.2344 L444.5,154.2344 " fill="#FEFFDD" style="stroke:#181818;stroke-width:0.5;"/><text fill="#000000" font-family="sans-serif" font-size="13" lengthAdjust="spacing" textLength="255" x="184.5" y="171.3013">void put(final Byteskey,final byte[]value)</text><ellipse cx="148.5" cy="166.8008" fill="#222222" rx="10" ry="10" style="stroke:#222222;stroke-width:1.0;"/><rect fill="#F1F1F1" height="33.9688" rx="12.5" ry="12.5" style="stroke:#181818;stroke-width:0.5;" width="181" x="58" y="199.3672"/><text fill="#000000" font-family="sans-serif" font-size="12" lengthAdjust="spacing" textLength="161" x="68" y="220.5059">wrapped().put(key,value);</text><polygon fill="#F1F1F1" points="112.5,253.3359,184.5,253.3359,196.5,265.3359,184.5,277.3359,112.5,277.3359,100.5,265.3359,112.5,253.3359" style="stroke:#181818;stroke-width:0.5;"/><text fill="#000000" font-family="sans-serif" font-size="11" lengthAdjust="spacing" textLength="68" x="112.5" y="269.144">value==null</text><text fill="#000000" font-family="sans-serif" font-size="11" lengthAdjust="spacing" textLength="20" x="80.5" y="262.7417">yes</text><text fill="#000000" font-family="sans-serif" font-size="11" lengthAdjust="spacing" textLength="14" x="196.5" y="262.7417">no</text><rect fill="#F1F1F1" height="33.9688" rx="12.5" ry="12.5" style="stroke:#181818;stroke-width:0.5;" width="104" x="11" y="287.3359"/><text fill="#000000" font-family="sans-serif" font-size="12" lengthAdjust="spacing" textLength="84" x="21" y="308.4746">log(key,null );</text><rect fill="#F1F1F1" height="33.9688" rx="12.5" ry="12.5" style="stroke:#181818;stroke-width:0.5;" width="198" x="135" y="287.3359"/><text fill="#000000" font-family="sans-serif" font-size="12" lengthAdjust="spacing" textLength="178" x="145" y="308.4746">log(key,wrapped().get(key));</text><polygon fill="#F1F1F1" points="148.5,327.3047,160.5,339.3047,148.5,351.3047,136.5,339.3047,148.5,327.3047" style="stroke:#181818;stroke-width:0.5;"/><ellipse cx="148.5" cy="381.3047" fill="none" rx="10" ry="10" style="stroke:#222222;stroke-width:1.5;"/><line style="stroke:#222222;stroke-width:2.5;" x1="142.3128" x2="154.6872" y1="375.1175" y2="387.4919"/><line style="stroke:#222222;stroke-width:2.5;" x1="154.6872" x2="142.3128" y1="375.1175" y2="387.4919"/><path d="M178.5,401.3047 L178.5,409.8711 L158.5,413.8711 L178.5,417.8711 L178.5,426.4375 A0,0 0 0 0 178.5,426.4375 L514.5,426.4375 A0,0 0 0 0 514.5,426.4375 L514.5,411.3047 L504.5,401.3047 L178.5,401.3047 A0,0 0 0 0 178.5,401.3047 " fill="#FEFFDD" style="stroke:#181818;stroke-width:0.5;"/><path d="M504.5,401.3047 L504.5,411.3047 L514.5,411.3047 L504.5,401.3047 " fill="#FEFFDD" style="stroke:#181818;stroke-width:0.5;"/><text fill="#000000" font-family="sans-serif" font-size="13" lengthAdjust="spacing" textLength="315" x="184.5" y="418.3716">byte[]putIfAbsent(final Byteskey,final byte[]value)</text><ellipse cx="148.5" cy="413.8711" fill="#222222" rx="10" ry="10" style="stroke:#222222;stroke-width:1.0;"/><rect fill="#F1F1F1" height="33.9688" rx="12.5" ry="12.5" style="stroke:#181818;stroke-width:0.5;" width="275" x="11" y="446.4375"/><text fill="#000000" font-family="sans-serif" font-size="12" lengthAdjust="spacing" textLength="255" x="21" y="467.5762">final byte[]oldValue=wrapped().get(key);</text><rect fill="#F1F1F1" height="33.9688" rx="12.5" ry="12.5" style="stroke:#181818;stroke-width:0.5;" width="113" x="92" y="548.8086"/><text fill="#000000" font-family="sans-serif" font-size="12" lengthAdjust="spacing" textLength="93" x="102" y="569.9473">put(key,value);</text><polygon fill="#F1F1F1" points="106.5,500.4063,190.5,500.4063,202.5,512.4063,190.5,524.4063,106.5,524.4063,94.5,512.4063,106.5,500.4063" style="stroke:#181818;stroke-width:0.5;"/><text fill="#000000" font-family="sans-serif" font-size="11" lengthAdjust="spacing" textLength="20" x="152.5" y="534.6167">yes</text><text fill="#000000" font-family="sans-serif" font-size="11" lengthAdjust="spacing" textLength="80" x="106.5" y="516.2144">oldValue!=null</text><polygon fill="#F1F1F1" points="148.5,602.7773,160.5,614.7773,148.5,626.7773,136.5,614.7773,148.5,602.7773" style="stroke:#181818;stroke-width:0.5;"/><rect fill="#F1F1F1" height="33.9688" rx="12.5" ry="12.5" style="stroke:#181818;stroke-width:0.5;" width="93" x="102" y="646.7773"/><text fill="#000000" font-family="sans-serif" font-size="12" lengthAdjust="spacing" textLength="73" x="112" y="667.916">return null ;</text><ellipse cx="148.5" cy="711.7461" fill="none" rx="11" ry="11" style="stroke:#222222;stroke-width:1.0;"/><ellipse cx="148.5" cy="711.7461" fill="#222222" rx="6" ry="6" style="stroke:#111111;stroke-width:1.0;"/><ellipse cx="148.5" cy="742.7461" fill="none" rx="10" ry="10" style="stroke:#222222;stroke-width:1.5;"/><line style="stroke:#222222;stroke-width:2.5;" x1="142.3128" x2="154.6872" y1="736.5589" y2="748.9333"/><line style="stroke:#222222;stroke-width:2.5;" x1="154.6872" x2="142.3128" y1="736.5589" y2="748.9333"/><line style="stroke:#181818;stroke-width:1.0;" x1="148.5" x2="148.5" y1="40.1328" y2="70.2656"/><polygon fill="#181818" points="144.5,60.2656,148.5,70.2656,152.5,60.2656,148.5,64.2656" style="stroke:#181818;stroke-width:1.0;"/><line style="stroke:#181818;stroke-width:1.0;" x1="148.5" x2="148.5" y1="104.2344" y2="124.2344"/><polygon fill="#181818" points="144.5,114.2344,148.5,124.2344,152.5,114.2344,148.5,118.2344" style="stroke:#181818;stroke-width:1.0;"/><line style="stroke:#181818;stroke-width:1.0;" x1="148.5" x2="148.5" y1="176.8008" y2="199.3672"/><polygon fill="#181818" points="144.5,189.3672,148.5,199.3672,152.5,189.3672,148.5,193.3672" style="stroke:#181818;stroke-width:1.0;"/><line style="stroke:#181818;stroke-width:1.0;" x1="100.5" x2="63" y1="265.3359" y2="265.3359"/><line style="stroke:#181818;stroke-width:1.0;" x1="63" x2="63" y1="265.3359" y2="287.3359"/><polygon fill="#181818" points="59,277.3359,63,287.3359,67,277.3359,63,281.3359" style="stroke:#181818;stroke-width:1.0;"/><line style="stroke:#181818;stroke-width:1.0;" x1="196.5" x2="234" y1="265.3359" y2="265.3359"/><line style="stroke:#181818;stroke-width:1.0;" x1="234" x2="234" y1="265.3359" y2="287.3359"/><polygon fill="#181818" points="230,277.3359,234,287.3359,238,277.3359,234,281.3359" style="stroke:#181818;stroke-width:1.0;"/><line style="stroke:#181818;stroke-width:1.0;" x1="63" x2="63" y1="321.3047" y2="339.3047"/><line style="stroke:#181818;stroke-width:1.0;" x1="63" x2="136.5" y1="339.3047" y2="339.3047"/><polygon fill="#181818" points="126.5,335.3047,136.5,339.3047,126.5,343.3047,130.5,339.3047" style="stroke:#181818;stroke-width:1.0;"/><line style="stroke:#181818;stroke-width:1.0;" x1="234" x2="234" y1="321.3047" y2="339.3047"/><line style="stroke:#181818;stroke-width:1.0;" x1="234" x2="160.5" y1="339.3047" y2="339.3047"/><polygon fill="#181818" points="170.5,335.3047,160.5,339.3047,170.5,343.3047,166.5,339.3047" style="stroke:#181818;stroke-width:1.0;"/><line style="stroke:#181818;stroke-width:1.0;" x1="148.5" x2="148.5" y1="233.3359" y2="253.3359"/><polygon fill="#181818" points="144.5,243.3359,148.5,253.3359,152.5,243.3359,148.5,247.3359" style="stroke:#181818;stroke-width:1.0;"/><line style="stroke:#181818;stroke-width:1.0;" x1="148.5" x2="148.5" y1="351.3047" y2="371.3047"/><polygon fill="#181818" points="144.5,361.3047,148.5,371.3047,152.5,361.3047,148.5,365.3047" style="stroke:#181818;stroke-width:1.0;"/><line style="stroke:#181818;stroke-width:1.0;" x1="148.5" x2="148.5" y1="423.8711" y2="446.4375"/><polygon fill="#181818" points="144.5,436.4375,148.5,446.4375,152.5,436.4375,148.5,440.4375" style="stroke:#181818;stroke-width:1.0;"/><line style="stroke:#181818;stroke-width:1.0;" x1="148.5" x2="148.5" y1="524.4063" y2="548.8086"/><polygon fill="#181818" points="144.5,538.8086,148.5,548.8086,152.5,538.8086,148.5,542.8086" style="stroke:#181818;stroke-width:1.0;"/><line style="stroke:#181818;stroke-width:1.0;" x1="202.5" x2="215" y1="512.4063" y2="512.4063"/><polygon fill="#181818" points="211,555.793,215,565.793,219,555.793,215,559.793" style="stroke:#181818;stroke-width:1.0;"/><line style="stroke:#181818;stroke-width:1.0;" x1="215" x2="215" y1="512.4063" y2="614.7773"/><line style="stroke:#181818;stroke-width:1.0;" x1="215" x2="160.5" y1="614.7773" y2="614.7773"/><polygon fill="#181818" points="170.5,610.7773,160.5,614.7773,170.5,618.7773,166.5,614.7773" style="stroke:#181818;stroke-width:1.0;"/><line style="stroke:#181818;stroke-width:1.0;" x1="148.5" x2="148.5" y1="582.7773" y2="602.7773"/><polygon fill="#181818" points="144.5,592.7773,148.5,602.7773,152.5,592.7773,148.5,596.7773" style="stroke:#181818;stroke-width:1.0;"/><line style="stroke:#181818;stroke-width:1.0;" x1="148.5" x2="148.5" y1="480.4063" y2="500.4063"/><polygon fill="#181818" points="144.5,490.4063,148.5,500.4063,152.5,490.4063,148.5,494.4063" style="stroke:#181818;stroke-width:1.0;"/><line style="stroke:#181818;stroke-width:1.0;" x1="148.5" x2="148.5" y1="626.7773" y2="646.7773"/><polygon fill="#181818" points="144.5,636.7773,148.5,646.7773,152.5,636.7773,148.5,640.7773" style="stroke:#181818;stroke-width:1.0;"/><line style="stroke:#181818;stroke-width:1.0;" x1="148.5" x2="148.5" y1="680.7461" y2="700.7461"/><polygon fill="#181818" points="144.5,690.7461,148.5,700.7461,152.5,690.7461,148.5,694.7461" style="stroke:#181818;stroke-width:1.0;"/><!--MD5=[5652f497355cb73d01eebfc7cd3ff4fe]
@startuml
!pragma layout smetana
start
note right
constructor ChangeLoggingListValueBytesStore(final KeyValueStore<Bytes,
byte[]>inner)
end note
:super (inner);;
end
start
note right
void put(final Byteskey,final byte[]value)
end note
:wrapped().put(key,value);;
if (value==null ) then (yes) 
:log(key,null );;
else (no)
:log(key,wrapped().get(key));;
endif 
end
start
note right
byte[]putIfAbsent(final Byteskey,final byte[]value)
end note
:final byte[]oldValue=wrapped().get(key);;
if (oldValue!=null ) then (yes) 
:put(key,value);;
endif 
:return null ;;
stop
end
@enduml

PlantUML version 1.2022.7(Mon Aug 22 17:01:30 UTC 2022)
(GPL source distribution)
Java Runtime: OpenJDK Runtime Environment
JVM: OpenJDK 64-Bit Server VM
Default Encoding: UTF-8
Language: en
Country: null
--></g></svg>