<svg xmlns="http://www.w3.org/2000/svg" xmlns:xlink="http://www.w3.org/1999/xlink" contentStyleType="text/css" data-diagram-type="ACTIVITY" height="211px" preserveAspectRatio="none" style="width:831px;height:211px;background:#FFFFFF;" version="1.1" viewBox="0 0 831 211" width="831px" zoomAndPan="magnify"><?plantuml 1.2026.6?><defs/><g><path d="M347.7002,15 L347.7002,31.1328 L327.7002,35.1328 L347.7002,39.1328 L347.7002,55.2656 A0,0 0 0 0 347.7002,55.2656 L810.4209,55.2656 A0,0 0 0 0 810.4209,55.2656 L810.4209,25 L800.4209,15 L347.7002,15 A0,0 0 0 0 347.7002,15" fill="#FEFFDD" style="stroke:#181818;stroke-width:0.5;"/><path d="M800.4209,15 L800.4209,25 L810.4209,25 L800.4209,15" fill="#FEFFDD" style="stroke:#181818;stroke-width:0.5;"/><text fill="#000000" font-family="sans-serif" font-size="13" lengthAdjust="spacing" textLength="441.7207" x="353.7002" y="32.0669">constructor LeftOrRightValueSerde(final Serde&lt;V1&gt;leftValueSerde,</text><text fill="#000000" font-family="sans-serif" font-size="13" lengthAdjust="spacing" textLength="219.1021" x="353.7002" y="47.1997">final Serde&lt;V2&gt;rightValueSerde)</text><ellipse cx="317.7002" cy="35.1328" fill="#222222" rx="10" ry="10" style="stroke:#222222;stroke-width:1;"/><rect fill="#F1F1F1" height="75.875" rx="12.5" ry="12.5" style="stroke:#181818;stroke-width:0.5;" width="603.4004" x="16" y="75.2656"/><text fill="#000000" font-family="sans-serif" font-size="12" lengthAdjust="spacing" textLength="583.4004" x="26" y="96.4043">super (new LeftOrRightValueSerializer&lt;&gt;(leftValueSerde!=null ? leftValueSerde.serializer():null ,</text><text fill="#000000" font-family="sans-serif" font-size="12" lengthAdjust="spacing" textLength="350.7188" x="26" y="110.373">rightValueSerde!=null ? rightValueSerde.serializer():null ),</text><text fill="#000000" font-family="sans-serif" font-size="12" lengthAdjust="spacing" textLength="571.3711" x="26" y="124.3418">new LeftOrRightValueDeserializer&lt;&gt;(leftValueSerde!=null ? leftValueSerde.deserializer():null ,</text><text fill="#000000" font-family="sans-serif" font-size="12" lengthAdjust="spacing" textLength="370.6289" x="26" y="138.3105">rightValueSerde!=null ? rightValueSerde.deserializer():null ));</text><ellipse cx="317.7002" cy="181.1406" fill="none" rx="10" ry="10" style="stroke:#222222;stroke-width:1.5;"/><line style="stroke:#222222;stroke-width:2.5;" x1="311.513" x2="323.8874" y1="174.9534" y2="187.3278"/><line style="stroke:#222222;stroke-width:2.5;" x1="323.8874" x2="311.513" y1="174.9534" y2="187.3278"/><line style="stroke:#181818;stroke-width:1;" x1="317.7002" x2="317.7002" y1="45.1328" y2="75.2656"/><polygon fill="#181818" points="313.7002,65.2656,317.7002,75.2656,321.7002,65.2656,317.7002,69.2656" style="stroke:#181818;stroke-width:1;stroke-linejoin:miter;stroke-miterlimit:10;"/><line style="stroke:#181818;stroke-width:1;" x1="317.7002" x2="317.7002" y1="151.1406" y2="171.1406"/><polygon fill="#181818" points="313.7002,161.1406,317.7002,171.1406,321.7002,161.1406,317.7002,165.1406" style="stroke:#181818;stroke-width:1;stroke-linejoin:miter;stroke-miterlimit:10;"/><?plantuml-src fP112u9048Nl-okccmiIr57DBXs3eC3xeAC9wwxCpXBrwqiFXk8bkWtllO_tc4tFs7G81fyk2FYE12qgByYYh1C2RfkxgD9PBnnASGndgkN2rq4lq0Iw4LSKrQr50-ET5RlSV49VDrOpUv_pdDQAR0L3dqfyw8aXilHOQshHj2_YB8_c3Pk33SR04URoraz8f9Cn4gj5-OGkz1LMnsfjrudyxyig-cVR6grrcWwFV0C0?></g></svg>