<svg xmlns="http://www.w3.org/2000/svg" xmlns:xlink="http://www.w3.org/1999/xlink" contentStyleType="text/css" data-diagram-type="ACTIVITY" height="1203px" preserveAspectRatio="none" style="width:801px;height:1203px;background:#FFFFFF;" version="1.1" viewBox="0 0 801 1203" width="801px" zoomAndPan="magnify"><?plantuml 1.2026.6?><defs/><g><path d="M344.5039,15 L344.5039,23.5664 L324.5039,27.5664 L344.5039,31.5664 L344.5039,40.1328 A0,0 0 0 0 344.5039,40.1328 L780.2915,40.1328 A0,0 0 0 0 780.2915,40.1328 L780.2915,25 L770.2915,15 L344.5039,15 A0,0 0 0 0 344.5039,15" fill="#FEFFDD" style="stroke:#181818;stroke-width:0.5;"/><path d="M770.2915,15 L770.2915,25 L780.2915,25 L770.2915,15" fill="#FEFFDD" style="stroke:#181818;stroke-width:0.5;"/><text fill="#000000" font-family="sans-serif" font-size="13" lengthAdjust="spacing" textLength="414.7876" x="350.5039" y="32.0669">constructor CreateAclsResponse(CreateAclsResponseDatadata)</text><ellipse cx="314.5039" cy="27.5664" fill="#222222" rx="10" ry="10" style="stroke:#222222;stroke-width:1;"/><rect fill="#F1F1F1" height="33.9688" rx="12.5" ry="12.5" style="stroke:#181818;stroke-width:0.5;" width="206.9023" x="211.0527" y="60.1328"/><text fill="#000000" font-family="sans-serif" font-size="12" lengthAdjust="spacing" textLength="186.9023" x="221.0527" y="81.2715">super (ApiKeys.CREATE_ACLS);</text><rect fill="#F1F1F1" height="33.9688" rx="12.5" ry="12.5" style="stroke:#181818;stroke-width:0.5;" width="113.8672" x="257.5703" y="114.1016"/><text fill="#000000" font-family="sans-serif" font-size="12" lengthAdjust="spacing" textLength="93.8672" x="267.5703" y="135.2402">this.data=data;</text><ellipse cx="314.5039" cy="178.0703" fill="none" rx="10" ry="10" style="stroke:#222222;stroke-width:1.5;"/><line style="stroke:#222222;stroke-width:2.5;" x1="308.3167" x2="320.6911" y1="171.8831" y2="184.2575"/><line style="stroke:#222222;stroke-width:2.5;" x1="320.6911" x2="308.3167" y1="171.8831" y2="184.2575"/><path d="M344.5039,198.0703 L344.5039,206.6367 L324.5039,210.6367 L344.5039,214.6367 L344.5039,223.2031 A0,0 0 0 0 344.5039,223.2031 L568.8955,223.2031 A0,0 0 0 0 568.8955,223.2031 L568.8955,208.0703 L558.8955,198.0703 L344.5039,198.0703 A0,0 0 0 0 344.5039,198.0703" fill="#FEFFDD" style="stroke:#181818;stroke-width:0.5;"/><path d="M558.8955,198.0703 L558.8955,208.0703 L568.8955,208.0703 L558.8955,198.0703" fill="#FEFFDD" style="stroke:#181818;stroke-width:0.5;"/><text fill="#000000" font-family="sans-serif" font-size="13" lengthAdjust="spacing" textLength="203.3916" x="350.5039" y="215.1372">CreateAclsResponseDatadata()</text><ellipse cx="314.5039" cy="210.6367" fill="#222222" rx="10" ry="10" style="stroke:#222222;stroke-width:1;"/><rect fill="#F1F1F1" height="33.9688" rx="12.5" ry="12.5" style="stroke:#181818;stroke-width:0.5;" width="92.0527" x="268.4775" y="243.2031"/><text fill="#000000" font-family="sans-serif" font-size="12" lengthAdjust="spacing" textLength="72.0527" x="278.4775" y="264.3418">return data;</text><ellipse cx="314.5039" cy="308.1719" fill="none" rx="11" ry="11" style="stroke:#222222;stroke-width:1;"/><ellipse cx="314.5039" cy="308.1719" fill="#222222" rx="6" ry="6" style="stroke:#222222;stroke-width:1;"/><ellipse cx="314.5039" cy="339.1719" fill="none" rx="10" ry="10" style="stroke:#222222;stroke-width:1.5;"/><line style="stroke:#222222;stroke-width:2.5;" x1="308.3167" x2="320.6911" y1="332.9847" y2="345.3591"/><line style="stroke:#222222;stroke-width:2.5;" x1="320.6911" x2="308.3167" y1="332.9847" y2="345.3591"/><path d="M344.5039,359.1719 L344.5039,367.7383 L324.5039,371.7383 L344.5039,375.7383 L344.5039,384.3047 A0,0 0 0 0 344.5039,384.3047 L491.2383,384.3047 A0,0 0 0 0 491.2383,384.3047 L491.2383,369.1719 L481.2383,359.1719 L344.5039,359.1719 A0,0 0 0 0 344.5039,359.1719" fill="#FEFFDD" style="stroke:#181818;stroke-width:0.5;"/><path d="M481.2383,359.1719 L481.2383,369.1719 L491.2383,369.1719 L481.2383,359.1719" fill="#FEFFDD" style="stroke:#181818;stroke-width:0.5;"/><text fill="#000000" font-family="sans-serif" font-size="13" lengthAdjust="spacing" textLength="125.7344" x="350.5039" y="376.2388">intthrottleTimeMs()</text><ellipse cx="314.5039" cy="371.7383" fill="#222222" rx="10" ry="10" style="stroke:#222222;stroke-width:1;"/><rect fill="#F1F1F1" height="33.9688" rx="12.5" ry="12.5" style="stroke:#181818;stroke-width:0.5;" width="196.2852" x="216.3613" y="404.3047"/><text fill="#000000" font-family="sans-serif" font-size="12" lengthAdjust="spacing" textLength="176.2852" x="226.3613" y="425.4434">return data.throttleTimeMs();</text><ellipse cx="314.5039" cy="469.2734" fill="none" rx="11" ry="11" style="stroke:#222222;stroke-width:1;"/><ellipse cx="314.5039" cy="469.2734" fill="#222222" rx="6" ry="6" style="stroke:#222222;stroke-width:1;"/><ellipse cx="314.5039" cy="500.2734" fill="none" rx="10" ry="10" style="stroke:#222222;stroke-width:1.5;"/><line style="stroke:#222222;stroke-width:2.5;" x1="308.3167" x2="320.6911" y1="494.0863" y2="506.4606"/><line style="stroke:#222222;stroke-width:2.5;" x1="320.6911" x2="308.3167" y1="494.0863" y2="506.4606"/><path d="M344.5039,520.2734 L344.5039,528.8398 L324.5039,532.8398 L344.5039,536.8398 L344.5039,545.4063 A0,0 0 0 0 344.5039,545.4063 L747.7852,545.4063 A0,0 0 0 0 747.7852,545.4063 L747.7852,530.2734 L737.7852,520.2734 L344.5039,520.2734 A0,0 0 0 0 344.5039,520.2734" fill="#FEFFDD" style="stroke:#181818;stroke-width:0.5;"/><path d="M737.7852,520.2734 L737.7852,530.2734 L747.7852,530.2734 L737.7852,520.2734" fill="#FEFFDD" style="stroke:#181818;stroke-width:0.5;"/><text fill="#000000" font-family="sans-serif" font-size="13" lengthAdjust="spacing" textLength="382.2813" x="350.5039" y="537.3403">List&lt;CreateAclsResponseData.AclCreationResult&gt;results()</text><ellipse cx="314.5039" cy="532.8398" fill="#222222" rx="10" ry="10" style="stroke:#222222;stroke-width:1;"/><rect fill="#F1F1F1" height="33.9688" rx="12.5" ry="12.5" style="stroke:#181818;stroke-width:0.5;" width="145.6953" x="241.6563" y="565.4063"/><text fill="#000000" font-family="sans-serif" font-size="12" lengthAdjust="spacing" textLength="125.6953" x="251.6563" y="586.5449">return data.results();</text><ellipse cx="314.5039" cy="630.375" fill="none" rx="11" ry="11" style="stroke:#222222;stroke-width:1;"/><ellipse cx="314.5039" cy="630.375" fill="#222222" rx="6" ry="6" style="stroke:#222222;stroke-width:1;"/><ellipse cx="314.5039" cy="661.375" fill="none" rx="10" ry="10" style="stroke:#222222;stroke-width:1.5;"/><line style="stroke:#222222;stroke-width:2.5;" x1="308.3167" x2="320.6911" y1="655.1878" y2="667.5622"/><line style="stroke:#222222;stroke-width:2.5;" x1="320.6911" x2="308.3167" y1="655.1878" y2="667.5622"/><path d="M344.5039,681.375 L344.5039,689.9414 L324.5039,693.9414 L344.5039,697.9414 L344.5039,706.5078 A0,0 0 0 0 344.5039,706.5078 L592.1025,706.5078 A0,0 0 0 0 592.1025,706.5078 L592.1025,691.375 L582.1025,681.375 L344.5039,681.375 A0,0 0 0 0 344.5039,681.375" fill="#FEFFDD" style="stroke:#181818;stroke-width:0.5;"/><path d="M582.1025,681.375 L582.1025,691.375 L592.1025,691.375 L582.1025,681.375" fill="#FEFFDD" style="stroke:#181818;stroke-width:0.5;"/><text fill="#000000" font-family="sans-serif" font-size="13" lengthAdjust="spacing" textLength="226.5986" x="350.5039" y="698.4419">Map&lt;Errors,Integer&gt;errorCounts()</text><ellipse cx="314.5039" cy="693.9414" fill="#222222" rx="10" ry="10" style="stroke:#222222;stroke-width:1;"/><rect fill="#F1F1F1" height="33.9688" rx="12.5" ry="12.5" style="stroke:#181818;stroke-width:0.5;" width="485.0117" x="71.998" y="726.5078"/><text fill="#000000" font-family="sans-serif" font-size="12" lengthAdjust="spacing" textLength="465.0117" x="81.998" y="747.6465">return errorCounts(results().stream().map(r-&gt;Errors.forCode(r.errorCode())));</text><ellipse cx="314.5039" cy="791.4766" fill="none" rx="11" ry="11" style="stroke:#222222;stroke-width:1;"/><ellipse cx="314.5039" cy="791.4766" fill="#222222" rx="6" ry="6" style="stroke:#222222;stroke-width:1;"/><ellipse cx="314.5039" cy="822.4766" fill="none" rx="10" ry="10" style="stroke:#222222;stroke-width:1.5;"/><line style="stroke:#222222;stroke-width:2.5;" x1="308.3167" x2="320.6911" y1="816.2894" y2="828.6637"/><line style="stroke:#222222;stroke-width:2.5;" x1="320.6911" x2="308.3167" y1="816.2894" y2="828.6637"/><path d="M344.5039,842.4766 L344.5039,858.6094 L324.5039,862.6094 L344.5039,866.6094 L344.5039,882.7422 A0,0 0 0 0 344.5039,882.7422 L652.3164,882.7422 A0,0 0 0 0 652.3164,882.7422 L652.3164,852.4766 L642.3164,842.4766 L344.5039,842.4766 A0,0 0 0 0 344.5039,842.4766" fill="#FEFFDD" style="stroke:#181818;stroke-width:0.5;"/><path d="M642.3164,842.4766 L642.3164,852.4766 L652.3164,852.4766 L642.3164,842.4766" fill="#FEFFDD" style="stroke:#181818;stroke-width:0.5;"/><text fill="#000000" font-family="sans-serif" font-size="13" lengthAdjust="spacing" textLength="286.8125" x="350.5039" y="859.5435">CreateAclsResponseparse(ByteBufferbuffer,</text><text fill="#000000" font-family="sans-serif" font-size="13" lengthAdjust="spacing" textLength="86.0933" x="350.5039" y="874.6763">shortversion)</text><ellipse cx="314.5039" cy="862.6094" fill="#222222" rx="10" ry="10" style="stroke:#222222;stroke-width:1;"/><rect fill="#F1F1F1" height="47.9375" rx="12.5" ry="12.5" style="stroke:#181818;stroke-width:0.5;" width="597.0078" x="16" y="902.7422"/><text fill="#000000" font-family="sans-serif" font-size="12" lengthAdjust="spacing" textLength="577.0078" x="26" y="923.8809">return new CreateAclsResponse(new CreateAclsResponseData(new ByteBufferAccessor(buffer),</text><text fill="#000000" font-family="sans-serif" font-size="12" lengthAdjust="spacing" textLength="57.3574" x="26" y="937.8496">version));</text><ellipse cx="314.5039" cy="981.6797" fill="none" rx="11" ry="11" style="stroke:#222222;stroke-width:1;"/><ellipse cx="314.5039" cy="981.6797" fill="#222222" rx="6" ry="6" style="stroke:#222222;stroke-width:1;"/><ellipse cx="314.5039" cy="1012.6797" fill="none" rx="10" ry="10" style="stroke:#222222;stroke-width:1.5;"/><line style="stroke:#222222;stroke-width:2.5;" x1="308.3167" x2="320.6911" y1="1006.4925" y2="1018.8669"/><line style="stroke:#222222;stroke-width:2.5;" x1="320.6911" x2="308.3167" y1="1006.4925" y2="1018.8669"/><path d="M344.5039,1032.6797 L344.5039,1041.2461 L324.5039,1045.2461 L344.5039,1049.2461 L344.5039,1057.8125 A0,0 0 0 0 344.5039,1057.8125 L640.6304,1057.8125 A0,0 0 0 0 640.6304,1057.8125 L640.6304,1042.6797 L630.6304,1032.6797 L344.5039,1032.6797 A0,0 0 0 0 344.5039,1032.6797" fill="#FEFFDD" style="stroke:#181818;stroke-width:0.5;"/><path d="M630.6304,1032.6797 L630.6304,1042.6797 L640.6304,1042.6797 L630.6304,1032.6797" fill="#FEFFDD" style="stroke:#181818;stroke-width:0.5;"/><text fill="#000000" font-family="sans-serif" font-size="13" lengthAdjust="spacing" textLength="275.1265" x="350.5039" y="1049.7466">booleanshouldClientThrottle(shortversion)</text><ellipse cx="314.5039" cy="1045.2461" fill="#222222" rx="10" ry="10" style="stroke:#222222;stroke-width:1;"/><rect fill="#F1F1F1" height="33.9688" rx="12.5" ry="12.5" style="stroke:#181818;stroke-width:0.5;" width="136.7188" x="246.1445" y="1077.8125"/><text fill="#000000" font-family="sans-serif" font-size="12" lengthAdjust="spacing" textLength="116.7188" x="256.1445" y="1098.9512">return version&gt;=1;</text><ellipse cx="314.5039" cy="1142.7813" fill="none" rx="11" ry="11" style="stroke:#222222;stroke-width:1;"/><ellipse cx="314.5039" cy="1142.7813" fill="#222222" rx="6" ry="6" style="stroke:#222222;stroke-width:1;"/><ellipse cx="314.5039" cy="1173.7813" fill="none" rx="10" ry="10" style="stroke:#222222;stroke-width:1.5;"/><line style="stroke:#222222;stroke-width:2.5;" x1="308.3167" x2="320.6911" y1="1167.5941" y2="1179.9684"/><line style="stroke:#222222;stroke-width:2.5;" x1="320.6911" x2="308.3167" y1="1167.5941" y2="1179.9684"/><line style="stroke:#181818;stroke-width:1;" x1="314.5039" x2="314.5039" y1="37.5664" y2="60.1328"/><polygon fill="#181818" points="310.5039,50.1328,314.5039,60.1328,318.5039,50.1328,314.5039,54.1328" style="stroke:#181818;stroke-width:1;stroke-linejoin:miter;stroke-miterlimit:10;"/><line style="stroke:#181818;stroke-width:1;" x1="314.5039" x2="314.5039" y1="94.1016" y2="114.1016"/><polygon fill="#181818" points="310.5039,104.1016,314.5039,114.1016,318.5039,104.1016,314.5039,108.1016" style="stroke:#181818;stroke-width:1;stroke-linejoin:miter;stroke-miterlimit:10;"/><line style="stroke:#181818;stroke-width:1;" x1="314.5039" x2="314.5039" y1="148.0703" y2="168.0703"/><polygon fill="#181818" points="310.5039,158.0703,314.5039,168.0703,318.5039,158.0703,314.5039,162.0703" style="stroke:#181818;stroke-width:1;stroke-linejoin:miter;stroke-miterlimit:10;"/><line style="stroke:#181818;stroke-width:1;" x1="314.5039" x2="314.5039" y1="220.6367" y2="243.2031"/><polygon fill="#181818" points="310.5039,233.2031,314.5039,243.2031,318.5039,233.2031,314.5039,237.2031" style="stroke:#181818;stroke-width:1;stroke-linejoin:miter;stroke-miterlimit:10;"/><line style="stroke:#181818;stroke-width:1;" x1="314.5039" x2="314.5039" y1="277.1719" y2="297.1719"/><polygon fill="#181818" points="310.5039,287.1719,314.5039,297.1719,318.5039,287.1719,314.5039,291.1719" style="stroke:#181818;stroke-width:1;stroke-linejoin:miter;stroke-miterlimit:10;"/><line style="stroke:#181818;stroke-width:1;" x1="314.5039" x2="314.5039" y1="381.7383" y2="404.3047"/><polygon fill="#181818" points="310.5039,394.3047,314.5039,404.3047,318.5039,394.3047,314.5039,398.3047" style="stroke:#181818;stroke-width:1;stroke-linejoin:miter;stroke-miterlimit:10;"/><line style="stroke:#181818;stroke-width:1;" x1="314.5039" x2="314.5039" y1="438.2734" y2="458.2734"/><polygon fill="#181818" points="310.5039,448.2734,314.5039,458.2734,318.5039,448.2734,314.5039,452.2734" style="stroke:#181818;stroke-width:1;stroke-linejoin:miter;stroke-miterlimit:10;"/><line style="stroke:#181818;stroke-width:1;" x1="314.5039" x2="314.5039" y1="542.8398" y2="565.4063"/><polygon fill="#181818" points="310.5039,555.4063,314.5039,565.4063,318.5039,555.4063,314.5039,559.4063" style="stroke:#181818;stroke-width:1;stroke-linejoin:miter;stroke-miterlimit:10;"/><line style="stroke:#181818;stroke-width:1;" x1="314.5039" x2="314.5039" y1="599.375" y2="619.375"/><polygon fill="#181818" points="310.5039,609.375,314.5039,619.375,318.5039,609.375,314.5039,613.375" style="stroke:#181818;stroke-width:1;stroke-linejoin:miter;stroke-miterlimit:10;"/><line style="stroke:#181818;stroke-width:1;" x1="314.5039" x2="314.5039" y1="703.9414" y2="726.5078"/><polygon fill="#181818" points="310.5039,716.5078,314.5039,726.5078,318.5039,716.5078,314.5039,720.5078" style="stroke:#181818;stroke-width:1;stroke-linejoin:miter;stroke-miterlimit:10;"/><line style="stroke:#181818;stroke-width:1;" x1="314.5039" x2="314.5039" y1="760.4766" y2="780.4766"/><polygon fill="#181818" points="310.5039,770.4766,314.5039,780.4766,318.5039,770.4766,314.5039,774.4766" style="stroke:#181818;stroke-width:1;stroke-linejoin:miter;stroke-miterlimit:10;"/><line style="stroke:#181818;stroke-width:1;" x1="314.5039" x2="314.5039" y1="872.6094" y2="902.7422"/><polygon fill="#181818" points="310.5039,892.7422,314.5039,902.7422,318.5039,892.7422,314.5039,896.7422" style="stroke:#181818;stroke-width:1;stroke-linejoin:miter;stroke-miterlimit:10;"/><line style="stroke:#181818;stroke-width:1;" x1="314.5039" x2="314.5039" y1="950.6797" y2="970.6797"/><polygon fill="#181818" points="310.5039,960.6797,314.5039,970.6797,318.5039,960.6797,314.5039,964.6797" style="stroke:#181818;stroke-width:1;stroke-linejoin:miter;stroke-miterlimit:10;"/><line style="stroke:#181818;stroke-width:1;" x1="314.5039" x2="314.5039" y1="1055.2461" y2="1077.8125"/><polygon fill="#181818" points="310.5039,1067.8125,314.5039,1077.8125,318.5039,1067.8125,314.5039,1071.8125" style="stroke:#181818;stroke-width:1;stroke-linejoin:miter;stroke-miterlimit:10;"/><line style="stroke:#181818;stroke-width:1;" x1="314.5039" x2="314.5039" y1="1111.7813" y2="1131.7813"/><polygon fill="#181818" points="310.5039,1121.7813,314.5039,1131.7813,318.5039,1121.7813,314.5039,1125.7813" style="stroke:#181818;stroke-width:1;stroke-linejoin:miter;stroke-miterlimit:10;"/><?plantuml-src XLBBReCm4BpxA-WDfDHIhtaW4Pf3rUIIvbuvi0cMmBPsrwtozpM4fb5321B6p7XdXcMV7AfZew9QdQpdY1fWPPGWLiZ2M8O8zR5YKLX3ZBvWYr6Ee1YoegOja0i4nBVGgs9LXZiHOCgeLH9JyWumYZEdt-54Cj-kijtgCylN7ybi9gPSQP9jpQ9T0X8gRvFSjugllH3Oeubw9MBhXkMqOQxGCjUmqmriw9wA_7ziL7QjYUV3KMK0EaPR4t1VSuhTuxxrXH_rt2WtNo5QfCcROJW2fj2-vjQROV5h-k8Xmuy6rOHDeroCp-bPKnxQeoN4AFkoi4_2DPhfjWLEOHYOvObXwGy7m7stJWHL5laBa49R1g8Q-1uQl66uRND7_TbaHG545kEpNp8HlrxZ7x2tjWPbGZfVbtcjmV2k7uJuGUIUIHSlLmu_?></g></svg>