<?xml version="1.0" encoding="UTF-8" standalone="no"?><svg xmlns="http://www.w3.org/2000/svg" xmlns:xlink="http://www.w3.org/1999/xlink" contentStyleType="text/css" height="3570px" preserveAspectRatio="none" style="width:1059px;height:3570px;background:#FFFFFF;" version="1.1" viewBox="0 0 1059 3570" width="1059px" zoomAndPan="magnify"><defs/><g><path d="M559.5,10 L559.5,18.5664 L539.5,22.5664 L559.5,26.5664 L559.5,35.1328 A0,0 0 0 0 559.5,35.1328 L897.5,35.1328 A0,0 0 0 0 897.5,35.1328 L897.5,20 L887.5,10 L559.5,10 A0,0 0 0 0 559.5,10 " fill="#FEFFDD" style="stroke:#181818;stroke-width:0.5;"/><path d="M887.5,10 L887.5,20 L897.5,20 L887.5,10 " fill="#FEFFDD" style="stroke:#181818;stroke-width:0.5;"/><text fill="#000000" font-family="sans-serif" font-size="13" lengthAdjust="spacing" textLength="317" x="565.5" y="27.0669">BuilderforReplica(shortallowedVersion,intreplicaId)</text><ellipse cx="529.5" cy="22.5664" fill="#222222" rx="10" ry="10" style="stroke:#222222;stroke-width:1.0;"/><rect fill="#F1F1F1" height="47.9375" rx="12.5" ry="12.5" style="stroke:#181818;stroke-width:0.5;" width="302" x="378.5" y="55.1328"/><text fill="#000000" font-family="sans-serif" font-size="12" lengthAdjust="spacing" textLength="273" x="388.5" y="76.2715">return new Builder((short)0,allowedVersion,</text><text fill="#000000" font-family="sans-serif" font-size="12" lengthAdjust="spacing" textLength="282" x="388.5" y="90.2402">replicaId,IsolationLevel.READ_UNCOMMITTED);</text><ellipse cx="529.5" cy="134.0703" fill="none" rx="11" ry="11" style="stroke:#222222;stroke-width:1.0;"/><ellipse cx="529.5" cy="134.0703" fill="#222222" rx="6" ry="6" style="stroke:#111111;stroke-width:1.0;"/><ellipse cx="529.5" cy="165.0703" fill="none" rx="10" ry="10" style="stroke:#222222;stroke-width:1.5;"/><line style="stroke:#222222;stroke-width:2.5;" x1="523.3128" x2="535.6872" y1="158.8831" y2="171.2575"/><line style="stroke:#222222;stroke-width:2.5;" x1="535.6872" x2="523.3128" y1="158.8831" y2="171.2575"/><path d="M559.5,185.0703 L559.5,201.2031 L539.5,205.2031 L559.5,209.2031 L559.5,225.3359 A0,0 0 0 0 559.5,225.3359 L955.5,225.3359 A0,0 0 0 0 955.5,225.3359 L955.5,195.0703 L945.5,185.0703 L559.5,185.0703 A0,0 0 0 0 559.5,185.0703 " fill="#FEFFDD" style="stroke:#181818;stroke-width:0.5;"/><path d="M945.5,185.0703 L945.5,195.0703 L955.5,195.0703 L945.5,185.0703 " fill="#FEFFDD" style="stroke:#181818;stroke-width:0.5;"/><text fill="#000000" font-family="sans-serif" font-size="13" lengthAdjust="spacing" textLength="304" x="565.5" y="202.1372">BuilderforConsumer(booleanrequireTimestamp,</text><text fill="#000000" font-family="sans-serif" font-size="13" lengthAdjust="spacing" textLength="375" x="565.5" y="217.27">IsolationLevelisolationLevel,booleanrequireMaxTimestamp)</text><ellipse cx="529.5" cy="205.2031" fill="#222222" rx="10" ry="10" style="stroke:#222222;stroke-width:1.0;"/><rect fill="#F1F1F1" height="33.9688" rx="12.5" ry="12.5" style="stroke:#181818;stroke-width:0.5;" width="111" x="474" y="293.7383"/><text fill="#000000" font-family="sans-serif" font-size="12" lengthAdjust="spacing" textLength="91" x="484" y="314.877">minVersion=7;</text><polygon fill="#F1F1F1" points="466,245.3359,593,245.3359,605,257.3359,593,269.3359,466,269.3359,454,257.3359,466,245.3359" style="stroke:#181818;stroke-width:0.5;"/><text fill="#000000" font-family="sans-serif" font-size="11" lengthAdjust="spacing" textLength="20" x="533.5" y="279.5464">yes</text><text fill="#000000" font-family="sans-serif" font-size="11" lengthAdjust="spacing" textLength="127" x="466" y="261.144">requireMaxTimestamp</text><polygon fill="#F1F1F1" points="529.5,347.707,541.5,359.707,529.5,371.707,517.5,359.707,529.5,347.707" style="stroke:#181818;stroke-width:0.5;"/><rect fill="#F1F1F1" height="47.9375" rx="12.5" ry="12.5" style="stroke:#181818;stroke-width:0.5;" width="449" x="305" y="391.707"/><text fill="#000000" font-family="sans-serif" font-size="12" lengthAdjust="spacing" textLength="429" x="315" y="412.8457">return new Builder(minVersion,ApiKeys.LIST_OFFSETS.latestVersion(),</text><text fill="#000000" font-family="sans-serif" font-size="12" lengthAdjust="spacing" textLength="239" x="315" y="426.8145">CONSUMER_REPLICA_ID,isolationLevel);</text><ellipse cx="529.5" cy="470.6445" fill="none" rx="11" ry="11" style="stroke:#222222;stroke-width:1.0;"/><ellipse cx="529.5" cy="470.6445" fill="#222222" rx="6" ry="6" style="stroke:#111111;stroke-width:1.0;"/><ellipse cx="529.5" cy="501.6445" fill="none" rx="10" ry="10" style="stroke:#222222;stroke-width:1.5;"/><line style="stroke:#222222;stroke-width:2.5;" x1="523.3128" x2="535.6872" y1="495.4573" y2="507.8317"/><line style="stroke:#222222;stroke-width:2.5;" x1="535.6872" x2="523.3128" y1="495.4573" y2="507.8317"/><path d="M559.5,521.6445 L559.5,537.7773 L539.5,541.7773 L559.5,545.7773 L559.5,561.9102 A0,0 0 0 0 559.5,561.9102 L999.5,561.9102 A0,0 0 0 0 999.5,561.9102 L999.5,531.6445 L989.5,521.6445 L559.5,521.6445 A0,0 0 0 0 559.5,521.6445 " fill="#FEFFDD" style="stroke:#181818;stroke-width:0.5;"/><path d="M989.5,521.6445 L989.5,531.6445 L999.5,531.6445 L989.5,521.6445 " fill="#FEFFDD" style="stroke:#181818;stroke-width:0.5;"/><text fill="#000000" font-family="sans-serif" font-size="13" lengthAdjust="spacing" textLength="298" x="565.5" y="538.7114">constructor Builder(shortoldestAllowedVersion,</text><text fill="#000000" font-family="sans-serif" font-size="13" lengthAdjust="spacing" textLength="419" x="565.5" y="553.8442">shortlatestAllowedVersion,intreplicaId,IsolationLevelisolationLevel)</text><ellipse cx="529.5" cy="541.7773" fill="#222222" rx="10" ry="10" style="stroke:#222222;stroke-width:1.0;"/><rect fill="#F1F1F1" height="47.9375" rx="12.5" ry="12.5" style="stroke:#181818;stroke-width:0.5;" width="341" x="359" y="581.9102"/><text fill="#000000" font-family="sans-serif" font-size="12" lengthAdjust="spacing" textLength="321" x="369" y="603.0488">super (ApiKeys.LIST_OFFSETS,oldestAllowedVersion,</text><text fill="#000000" font-family="sans-serif" font-size="12" lengthAdjust="spacing" textLength="139" x="369" y="617.0176">latestAllowedVersion);</text><rect fill="#F1F1F1" height="47.9375" rx="12.5" ry="12.5" style="stroke:#181818;stroke-width:0.5;" width="472" x="293.5" y="649.8477"/><text fill="#000000" font-family="sans-serif" font-size="12" lengthAdjust="spacing" textLength="452" x="303.5" y="670.9863">data=new ListOffsetsRequestData().setIsolationLevel(isolationLevel.id())</text><text fill="#000000" font-family="sans-serif" font-size="12" lengthAdjust="spacing" textLength="147" x="303.5" y="684.9551">.setReplicaId(replicaId);</text><ellipse cx="529.5" cy="727.7852" fill="none" rx="10" ry="10" style="stroke:#222222;stroke-width:1.5;"/><line style="stroke:#222222;stroke-width:2.5;" x1="523.3128" x2="535.6872" y1="721.598" y2="733.9723"/><line style="stroke:#222222;stroke-width:2.5;" x1="535.6872" x2="523.3128" y1="721.598" y2="733.9723"/><path d="M559.5,747.7852 L559.5,756.3516 L539.5,760.3516 L559.5,764.3516 L559.5,772.918 A0,0 0 0 0 559.5,772.918 L915.5,772.918 A0,0 0 0 0 915.5,772.918 L915.5,757.7852 L905.5,747.7852 L559.5,747.7852 A0,0 0 0 0 559.5,747.7852 " fill="#FEFFDD" style="stroke:#181818;stroke-width:0.5;"/><path d="M905.5,747.7852 L905.5,757.7852 L915.5,757.7852 L905.5,747.7852 " fill="#FEFFDD" style="stroke:#181818;stroke-width:0.5;"/><text fill="#000000" font-family="sans-serif" font-size="13" lengthAdjust="spacing" textLength="335" x="565.5" y="764.8521">BuildersetTargetTimes(List&lt;ListOffsetsTopic&gt;topics)</text><ellipse cx="529.5" cy="760.3516" fill="#222222" rx="10" ry="10" style="stroke:#222222;stroke-width:1.0;"/><rect fill="#F1F1F1" height="33.9688" rx="12.5" ry="12.5" style="stroke:#181818;stroke-width:0.5;" width="165" x="447" y="792.918"/><text fill="#000000" font-family="sans-serif" font-size="12" lengthAdjust="spacing" textLength="145" x="457" y="814.0566">data.setTopics(topics);</text><rect fill="#F1F1F1" height="33.9688" rx="12.5" ry="12.5" style="stroke:#181818;stroke-width:0.5;" width="90" x="484.5" y="846.8867"/><text fill="#000000" font-family="sans-serif" font-size="12" lengthAdjust="spacing" textLength="70" x="494.5" y="868.0254">return this;</text><ellipse cx="529.5" cy="911.8555" fill="none" rx="11" ry="11" style="stroke:#222222;stroke-width:1.0;"/><ellipse cx="529.5" cy="911.8555" fill="#222222" rx="6" ry="6" style="stroke:#111111;stroke-width:1.0;"/><ellipse cx="529.5" cy="942.8555" fill="none" rx="10" ry="10" style="stroke:#222222;stroke-width:1.5;"/><line style="stroke:#222222;stroke-width:2.5;" x1="523.3128" x2="535.6872" y1="936.6683" y2="949.0427"/><line style="stroke:#222222;stroke-width:2.5;" x1="535.6872" x2="523.3128" y1="936.6683" y2="949.0427"/><path d="M559.5,962.8555 L559.5,971.4219 L539.5,975.4219 L559.5,979.4219 L559.5,987.9883 A0,0 0 0 0 559.5,987.9883 L818.5,987.9883 A0,0 0 0 0 818.5,987.9883 L818.5,972.8555 L808.5,962.8555 L559.5,962.8555 A0,0 0 0 0 559.5,962.8555 " fill="#FEFFDD" style="stroke:#181818;stroke-width:0.5;"/><path d="M808.5,962.8555 L808.5,972.8555 L818.5,972.8555 L808.5,962.8555 " fill="#FEFFDD" style="stroke:#181818;stroke-width:0.5;"/><text fill="#000000" font-family="sans-serif" font-size="13" lengthAdjust="spacing" textLength="238" x="565.5" y="979.9224">ListOffsetsRequestbuild(shortversion)</text><ellipse cx="529.5" cy="975.4219" fill="#222222" rx="10" ry="10" style="stroke:#222222;stroke-width:1.0;"/><rect fill="#F1F1F1" height="33.9688" rx="12.5" ry="12.5" style="stroke:#181818;stroke-width:0.5;" width="301" x="379" y="1007.9883"/><text fill="#000000" font-family="sans-serif" font-size="12" lengthAdjust="spacing" textLength="281" x="389" y="1029.127">return new ListOffsetsRequest(data,version);</text><ellipse cx="529.5" cy="1072.957" fill="none" rx="11" ry="11" style="stroke:#222222;stroke-width:1.0;"/><ellipse cx="529.5" cy="1072.957" fill="#222222" rx="6" ry="6" style="stroke:#111111;stroke-width:1.0;"/><ellipse cx="529.5" cy="1103.957" fill="none" rx="10" ry="10" style="stroke:#222222;stroke-width:1.5;"/><line style="stroke:#222222;stroke-width:2.5;" x1="523.3128" x2="535.6872" y1="1097.7698" y2="1110.1442"/><line style="stroke:#222222;stroke-width:2.5;" x1="535.6872" x2="523.3128" y1="1097.7698" y2="1110.1442"/><path d="M559.5,1123.957 L559.5,1132.5234 L539.5,1136.5234 L559.5,1140.5234 L559.5,1149.0898 A0,0 0 0 0 559.5,1149.0898 L679.5,1149.0898 A0,0 0 0 0 679.5,1149.0898 L679.5,1133.957 L669.5,1123.957 L559.5,1123.957 A0,0 0 0 0 559.5,1123.957 " fill="#FEFFDD" style="stroke:#181818;stroke-width:0.5;"/><path d="M669.5,1123.957 L669.5,1133.957 L679.5,1133.957 L669.5,1123.957 " fill="#FEFFDD" style="stroke:#181818;stroke-width:0.5;"/><text fill="#000000" font-family="sans-serif" font-size="13" lengthAdjust="spacing" textLength="99" x="565.5" y="1141.0239">StringtoString()</text><ellipse cx="529.5" cy="1136.5234" fill="#222222" rx="10" ry="10" style="stroke:#222222;stroke-width:1.0;"/><rect fill="#F1F1F1" height="33.9688" rx="12.5" ry="12.5" style="stroke:#181818;stroke-width:0.5;" width="160" x="449.5" y="1169.0898"/><text fill="#000000" font-family="sans-serif" font-size="12" lengthAdjust="spacing" textLength="140" x="459.5" y="1190.2285">return data.toString();</text><ellipse cx="529.5" cy="1234.0586" fill="none" rx="11" ry="11" style="stroke:#222222;stroke-width:1.0;"/><ellipse cx="529.5" cy="1234.0586" fill="#222222" rx="6" ry="6" style="stroke:#111111;stroke-width:1.0;"/><ellipse cx="529.5" cy="1265.0586" fill="none" rx="10" ry="10" style="stroke:#222222;stroke-width:1.5;"/><line style="stroke:#222222;stroke-width:2.5;" x1="523.3128" x2="535.6872" y1="1258.8714" y2="1271.2458"/><line style="stroke:#222222;stroke-width:2.5;" x1="535.6872" x2="523.3128" y1="1258.8714" y2="1271.2458"/><path d="M559.5,1285.0586 L559.5,1301.1914 L539.5,1305.1914 L559.5,1309.1914 L559.5,1325.3242 A0,0 0 0 0 559.5,1325.3242 L964.5,1325.3242 A0,0 0 0 0 964.5,1325.3242 L964.5,1295.0586 L954.5,1285.0586 L559.5,1285.0586 A0,0 0 0 0 559.5,1285.0586 " fill="#FEFFDD" style="stroke:#181818;stroke-width:0.5;"/><path d="M954.5,1285.0586 L954.5,1295.0586 L964.5,1295.0586 L954.5,1285.0586 " fill="#FEFFDD" style="stroke:#181818;stroke-width:0.5;"/><text fill="#000000" font-family="sans-serif" font-size="13" lengthAdjust="spacing" textLength="384" x="565.5" y="1302.1255">constructor ListOffsetsRequest(ListOffsetsRequestDatadata,</text><text fill="#000000" font-family="sans-serif" font-size="13" lengthAdjust="spacing" textLength="84" x="565.5" y="1317.2583">shortversion)</text><ellipse cx="529.5" cy="1305.1914" fill="#222222" rx="10" ry="10" style="stroke:#222222;stroke-width:1.0;"/><rect fill="#F1F1F1" height="33.9688" rx="12.5" ry="12.5" style="stroke:#181818;stroke-width:0.5;" width="258" x="400.5" y="1345.3242"/><text fill="#000000" font-family="sans-serif" font-size="12" lengthAdjust="spacing" textLength="238" x="410.5" y="1366.4629">super (ApiKeys.LIST_OFFSETS,version);</text><rect fill="#F1F1F1" height="33.9688" rx="12.5" ry="12.5" style="stroke:#181818;stroke-width:0.5;" width="119" x="470" y="1399.293"/><text fill="#000000" font-family="sans-serif" font-size="12" lengthAdjust="spacing" textLength="99" x="480" y="1420.4316">this.data=data;</text><rect fill="#F1F1F1" height="33.9688" rx="12.5" ry="12.5" style="stroke:#181818;stroke-width:0.5;" width="264" x="397.5" y="1453.2617"/><text fill="#000000" font-family="sans-serif" font-size="12" lengthAdjust="spacing" textLength="244" x="407.5" y="1474.4004">duplicatePartitions=new HashSet&lt;&gt;();</text><rect fill="#F1F1F1" height="33.9688" rx="12.5" ry="12.5" style="stroke:#181818;stroke-width:0.5;" width="193" x="433" y="1555.6328"/><text fill="#000000" font-family="sans-serif" font-size="12" lengthAdjust="spacing" textLength="173" x="443" y="1576.7715">duplicatePartitions.add(tp);</text><polygon fill="#F1F1F1" points="479,1507.2305,580,1507.2305,592,1519.2305,580,1531.2305,479,1531.2305,467,1519.2305,479,1507.2305" style="stroke:#181818;stroke-width:0.5;"/><text fill="#000000" font-family="sans-serif" font-size="11" lengthAdjust="spacing" textLength="20" x="533.5" y="1541.4409">yes</text><text fill="#000000" font-family="sans-serif" font-size="11" lengthAdjust="spacing" textLength="101" x="479" y="1523.0386">!partitions.add(tp)</text><polygon fill="#F1F1F1" points="529.5,1609.6016,541.5,1621.6016,529.5,1633.6016,517.5,1621.6016,529.5,1609.6016" style="stroke:#181818;stroke-width:0.5;"/><ellipse cx="529.5" cy="1663.6016" fill="none" rx="10" ry="10" style="stroke:#222222;stroke-width:1.5;"/><line style="stroke:#222222;stroke-width:2.5;" x1="523.3128" x2="535.6872" y1="1657.4144" y2="1669.7887"/><line style="stroke:#222222;stroke-width:2.5;" x1="535.6872" x2="523.3128" y1="1657.4144" y2="1669.7887"/><path d="M559.5,1683.6016 L559.5,1699.7344 L539.5,1703.7344 L559.5,1707.7344 L559.5,1723.8672 A0,0 0 0 0 559.5,1723.8672 L931.5,1723.8672 A0,0 0 0 0 931.5,1723.8672 L931.5,1693.6016 L921.5,1683.6016 L559.5,1683.6016 A0,0 0 0 0 559.5,1683.6016 " fill="#FEFFDD" style="stroke:#181818;stroke-width:0.5;"/><path d="M921.5,1683.6016 L921.5,1693.6016 L931.5,1693.6016 L921.5,1683.6016 " fill="#FEFFDD" style="stroke:#181818;stroke-width:0.5;"/><text fill="#000000" font-family="sans-serif" font-size="13" lengthAdjust="spacing" textLength="351" x="565.5" y="1700.6685">AbstractResponsegetErrorResponse(intthrottleTimeMs,</text><text fill="#000000" font-family="sans-serif" font-size="13" lengthAdjust="spacing" textLength="77" x="565.5" y="1715.8013">Throwablee)</text><ellipse cx="529.5" cy="1703.7344" fill="#222222" rx="10" ry="10" style="stroke:#222222;stroke-width:1.0;"/><polygon fill="#F1F1F1" points="491,1743.8672,568,1743.8672,580,1755.8672,568,1767.8672,491,1767.8672,479,1755.8672,491,1743.8672" style="stroke:#181818;stroke-width:0.5;"/><text fill="#000000" font-family="sans-serif" font-size="11" lengthAdjust="spacing" textLength="77" x="491" y="1759.6753">versionId==0</text><text fill="#000000" font-family="sans-serif" font-size="11" lengthAdjust="spacing" textLength="20" x="459" y="1753.2729">yes</text><text fill="#000000" font-family="sans-serif" font-size="11" lengthAdjust="spacing" textLength="14" x="580" y="1753.2729">no</text><rect fill="#F1F1F1" height="33.9688" rx="12.5" ry="12.5" style="stroke:#181818;stroke-width:0.5;" width="408" x="100.5" y="1777.8672"/><text fill="#000000" font-family="sans-serif" font-size="12" lengthAdjust="spacing" textLength="388" x="110.5" y="1799.0059">partitionResponse.setOldStyleOffsets(Collections.emptyList());</text><rect fill="#F1F1F1" height="47.9375" rx="12.5" ry="12.5" style="stroke:#181818;stroke-width:0.5;" width="452" x="528.5" y="1777.8672"/><text fill="#000000" font-family="sans-serif" font-size="12" lengthAdjust="spacing" textLength="432" x="538.5" y="1799.0059">partitionResponse.setOffset(ListOffsetsResponse.UNKNOWN_OFFSET)</text><text fill="#000000" font-family="sans-serif" font-size="12" lengthAdjust="spacing" textLength="375" x="538.5" y="1812.9746">.setTimestamp(ListOffsetsResponse.UNKNOWN_TIMESTAMP);</text><polygon fill="#F1F1F1" points="529.5,1831.8047,541.5,1843.8047,529.5,1855.8047,517.5,1843.8047,529.5,1831.8047" style="stroke:#181818;stroke-width:0.5;"/><rect fill="#F1F1F1" height="33.9688" rx="12.5" ry="12.5" style="stroke:#181818;stroke-width:0.5;" width="237" x="411" y="1875.8047"/><text fill="#000000" font-family="sans-serif" font-size="12" lengthAdjust="spacing" textLength="217" x="421" y="1896.9434">partitions.add(partitionResponse);</text><rect fill="#F1F1F1" height="33.9688" rx="12.5" ry="12.5" style="stroke:#181818;stroke-width:0.5;" width="271" x="394" y="1929.7734"/><text fill="#000000" font-family="sans-serif" font-size="12" lengthAdjust="spacing" textLength="251" x="404" y="1950.9121">topicResponse.setPartitions(partitions);</text><rect fill="#F1F1F1" height="33.9688" rx="12.5" ry="12.5" style="stroke:#181818;stroke-width:0.5;" width="221" x="419" y="1983.7422"/><text fill="#000000" font-family="sans-serif" font-size="12" lengthAdjust="spacing" textLength="201" x="429" y="2004.8809">responses.add(topicResponse);</text><rect fill="#F1F1F1" height="33.9688" rx="12.5" ry="12.5" style="stroke:#181818;stroke-width:0.5;" width="322" x="368.5" y="2037.7109"/><text fill="#000000" font-family="sans-serif" font-size="12" lengthAdjust="spacing" textLength="302" x="378.5" y="2058.8496">return new ListOffsetsResponse(responseData);</text><ellipse cx="529.5" cy="2102.6797" fill="none" rx="11" ry="11" style="stroke:#222222;stroke-width:1.0;"/><ellipse cx="529.5" cy="2102.6797" fill="#222222" rx="6" ry="6" style="stroke:#111111;stroke-width:1.0;"/><ellipse cx="529.5" cy="2133.6797" fill="none" rx="10" ry="10" style="stroke:#222222;stroke-width:1.5;"/><line style="stroke:#222222;stroke-width:2.5;" x1="523.3128" x2="535.6872" y1="2127.4925" y2="2139.8669"/><line style="stroke:#222222;stroke-width:2.5;" x1="535.6872" x2="523.3128" y1="2127.4925" y2="2139.8669"/><path d="M559.5,2153.6797 L559.5,2162.2461 L539.5,2166.2461 L559.5,2170.2461 L559.5,2178.8125 A0,0 0 0 0 559.5,2178.8125 L769.5,2178.8125 A0,0 0 0 0 769.5,2178.8125 L769.5,2163.6797 L759.5,2153.6797 L559.5,2153.6797 A0,0 0 0 0 559.5,2153.6797 " fill="#FEFFDD" style="stroke:#181818;stroke-width:0.5;"/><path d="M759.5,2153.6797 L759.5,2163.6797 L769.5,2163.6797 L759.5,2153.6797 " fill="#FEFFDD" style="stroke:#181818;stroke-width:0.5;"/><text fill="#000000" font-family="sans-serif" font-size="13" lengthAdjust="spacing" textLength="189" x="565.5" y="2170.7466">ListOffsetsRequestDatadata()</text><ellipse cx="529.5" cy="2166.2461" fill="#222222" rx="10" ry="10" style="stroke:#222222;stroke-width:1.0;"/><rect fill="#F1F1F1" height="33.9688" rx="12.5" ry="12.5" style="stroke:#181818;stroke-width:0.5;" width="96" x="481.5" y="2198.8125"/><text fill="#000000" font-family="sans-serif" font-size="12" lengthAdjust="spacing" textLength="76" x="491.5" y="2219.9512">return data;</text><ellipse cx="529.5" cy="2263.7813" fill="none" rx="11" ry="11" style="stroke:#222222;stroke-width:1.0;"/><ellipse cx="529.5" cy="2263.7813" fill="#222222" rx="6" ry="6" style="stroke:#111111;stroke-width:1.0;"/><ellipse cx="529.5" cy="2294.7813" fill="none" rx="10" ry="10" style="stroke:#222222;stroke-width:1.5;"/><line style="stroke:#222222;stroke-width:2.5;" x1="523.3128" x2="535.6872" y1="2288.5941" y2="2300.9684"/><line style="stroke:#222222;stroke-width:2.5;" x1="535.6872" x2="523.3128" y1="2288.5941" y2="2300.9684"/><path d="M559.5,2314.7813 L559.5,2323.3477 L539.5,2327.3477 L559.5,2331.3477 L559.5,2339.9141 A0,0 0 0 0 559.5,2339.9141 L659.5,2339.9141 A0,0 0 0 0 659.5,2339.9141 L659.5,2324.7813 L649.5,2314.7813 L559.5,2314.7813 A0,0 0 0 0 559.5,2314.7813 " fill="#FEFFDD" style="stroke:#181818;stroke-width:0.5;"/><path d="M649.5,2314.7813 L649.5,2324.7813 L659.5,2324.7813 L649.5,2314.7813 " fill="#FEFFDD" style="stroke:#181818;stroke-width:0.5;"/><text fill="#000000" font-family="sans-serif" font-size="13" lengthAdjust="spacing" textLength="79" x="565.5" y="2331.8481">intreplicaId()</text><ellipse cx="529.5" cy="2327.3477" fill="#222222" rx="10" ry="10" style="stroke:#222222;stroke-width:1.0;"/><rect fill="#F1F1F1" height="33.9688" rx="12.5" ry="12.5" style="stroke:#181818;stroke-width:0.5;" width="163" x="448" y="2359.9141"/><text fill="#000000" font-family="sans-serif" font-size="12" lengthAdjust="spacing" textLength="143" x="458" y="2381.0527">return data.replicaId();</text><ellipse cx="529.5" cy="2424.8828" fill="none" rx="11" ry="11" style="stroke:#222222;stroke-width:1.0;"/><ellipse cx="529.5" cy="2424.8828" fill="#222222" rx="6" ry="6" style="stroke:#111111;stroke-width:1.0;"/><ellipse cx="529.5" cy="2455.8828" fill="none" rx="10" ry="10" style="stroke:#222222;stroke-width:1.5;"/><line style="stroke:#222222;stroke-width:2.5;" x1="523.3128" x2="535.6872" y1="2449.6956" y2="2462.07"/><line style="stroke:#222222;stroke-width:2.5;" x1="535.6872" x2="523.3128" y1="2449.6956" y2="2462.07"/><path d="M559.5,2475.8828 L559.5,2484.4492 L539.5,2488.4492 L559.5,2492.4492 L559.5,2501.0156 A0,0 0 0 0 559.5,2501.0156 L762.5,2501.0156 A0,0 0 0 0 762.5,2501.0156 L762.5,2485.8828 L752.5,2475.8828 L559.5,2475.8828 A0,0 0 0 0 559.5,2475.8828 " fill="#FEFFDD" style="stroke:#181818;stroke-width:0.5;"/><path d="M752.5,2475.8828 L752.5,2485.8828 L762.5,2485.8828 L752.5,2475.8828 " fill="#FEFFDD" style="stroke:#181818;stroke-width:0.5;"/><text fill="#000000" font-family="sans-serif" font-size="13" lengthAdjust="spacing" textLength="182" x="565.5" y="2492.9497">IsolationLevelisolationLevel()</text><ellipse cx="529.5" cy="2488.4492" fill="#222222" rx="10" ry="10" style="stroke:#222222;stroke-width:1.0;"/><rect fill="#F1F1F1" height="33.9688" rx="12.5" ry="12.5" style="stroke:#181818;stroke-width:0.5;" width="320" x="369.5" y="2521.0156"/><text fill="#000000" font-family="sans-serif" font-size="12" lengthAdjust="spacing" textLength="300" x="379.5" y="2542.1543">return IsolationLevel.forId(data.isolationLevel());</text><ellipse cx="529.5" cy="2585.9844" fill="none" rx="11" ry="11" style="stroke:#222222;stroke-width:1.0;"/><ellipse cx="529.5" cy="2585.9844" fill="#222222" rx="6" ry="6" style="stroke:#111111;stroke-width:1.0;"/><ellipse cx="529.5" cy="2616.9844" fill="none" rx="10" ry="10" style="stroke:#222222;stroke-width:1.5;"/><line style="stroke:#222222;stroke-width:2.5;" x1="523.3128" x2="535.6872" y1="2610.7972" y2="2623.1716"/><line style="stroke:#222222;stroke-width:2.5;" x1="535.6872" x2="523.3128" y1="2610.7972" y2="2623.1716"/><path d="M559.5,2636.9844 L559.5,2645.5508 L539.5,2649.5508 L559.5,2653.5508 L559.5,2662.1172 A0,0 0 0 0 559.5,2662.1172 L772.5,2662.1172 A0,0 0 0 0 772.5,2662.1172 L772.5,2646.9844 L762.5,2636.9844 L559.5,2636.9844 A0,0 0 0 0 559.5,2636.9844 " fill="#FEFFDD" style="stroke:#181818;stroke-width:0.5;"/><path d="M762.5,2636.9844 L762.5,2646.9844 L772.5,2646.9844 L762.5,2636.9844 " fill="#FEFFDD" style="stroke:#181818;stroke-width:0.5;"/><text fill="#000000" font-family="sans-serif" font-size="13" lengthAdjust="spacing" textLength="192" x="565.5" y="2654.0513">List&lt;ListOffsetsTopic&gt;topics()</text><ellipse cx="529.5" cy="2649.5508" fill="#222222" rx="10" ry="10" style="stroke:#222222;stroke-width:1.0;"/><rect fill="#F1F1F1" height="33.9688" rx="12.5" ry="12.5" style="stroke:#181818;stroke-width:0.5;" width="148" x="455.5" y="2682.1172"/><text fill="#000000" font-family="sans-serif" font-size="12" lengthAdjust="spacing" textLength="128" x="465.5" y="2703.2559">return data.topics();</text><ellipse cx="529.5" cy="2747.0859" fill="none" rx="11" ry="11" style="stroke:#222222;stroke-width:1.0;"/><ellipse cx="529.5" cy="2747.0859" fill="#222222" rx="6" ry="6" style="stroke:#111111;stroke-width:1.0;"/><ellipse cx="529.5" cy="2778.0859" fill="none" rx="10" ry="10" style="stroke:#222222;stroke-width:1.5;"/><line style="stroke:#222222;stroke-width:2.5;" x1="523.3128" x2="535.6872" y1="2771.8988" y2="2784.2731"/><line style="stroke:#222222;stroke-width:2.5;" x1="535.6872" x2="523.3128" y1="2771.8988" y2="2784.2731"/><path d="M559.5,2798.0859 L559.5,2806.6523 L539.5,2810.6523 L559.5,2814.6523 L559.5,2823.2188 A0,0 0 0 0 559.5,2823.2188 L838.5,2823.2188 A0,0 0 0 0 838.5,2823.2188 L838.5,2808.0859 L828.5,2798.0859 L559.5,2798.0859 A0,0 0 0 0 559.5,2798.0859 " fill="#FEFFDD" style="stroke:#181818;stroke-width:0.5;"/><path d="M828.5,2798.0859 L828.5,2808.0859 L838.5,2808.0859 L828.5,2798.0859 " fill="#FEFFDD" style="stroke:#181818;stroke-width:0.5;"/><text fill="#000000" font-family="sans-serif" font-size="13" lengthAdjust="spacing" textLength="258" x="565.5" y="2815.1528">Set&lt;TopicPartition&gt;duplicatePartitions()</text><ellipse cx="529.5" cy="2810.6523" fill="#222222" rx="10" ry="10" style="stroke:#222222;stroke-width:1.0;"/><rect fill="#F1F1F1" height="33.9688" rx="12.5" ry="12.5" style="stroke:#181818;stroke-width:0.5;" width="185" x="437" y="2843.2188"/><text fill="#000000" font-family="sans-serif" font-size="12" lengthAdjust="spacing" textLength="165" x="447" y="2864.3574">return duplicatePartitions;</text><ellipse cx="529.5" cy="2908.1875" fill="none" rx="11" ry="11" style="stroke:#222222;stroke-width:1.0;"/><ellipse cx="529.5" cy="2908.1875" fill="#222222" rx="6" ry="6" style="stroke:#111111;stroke-width:1.0;"/><ellipse cx="529.5" cy="2939.1875" fill="none" rx="10" ry="10" style="stroke:#222222;stroke-width:1.5;"/><line style="stroke:#222222;stroke-width:2.5;" x1="523.3128" x2="535.6872" y1="2933.0003" y2="2945.3747"/><line style="stroke:#222222;stroke-width:2.5;" x1="535.6872" x2="523.3128" y1="2933.0003" y2="2945.3747"/><path d="M559.5,2959.1875 L559.5,2975.3203 L539.5,2979.3203 L559.5,2983.3203 L559.5,2999.4531 A0,0 0 0 0 559.5,2999.4531 L848.5,2999.4531 A0,0 0 0 0 848.5,2999.4531 L848.5,2969.1875 L838.5,2959.1875 L559.5,2959.1875 A0,0 0 0 0 559.5,2959.1875 " fill="#FEFFDD" style="stroke:#181818;stroke-width:0.5;"/><path d="M838.5,2959.1875 L838.5,2969.1875 L848.5,2969.1875 L838.5,2959.1875 " fill="#FEFFDD" style="stroke:#181818;stroke-width:0.5;"/><text fill="#000000" font-family="sans-serif" font-size="13" lengthAdjust="spacing" textLength="268" x="565.5" y="2976.2544">ListOffsetsRequestparse(ByteBufferbuffer,</text><text fill="#000000" font-family="sans-serif" font-size="13" lengthAdjust="spacing" textLength="84" x="565.5" y="2991.3872">shortversion)</text><ellipse cx="529.5" cy="2979.3203" fill="#222222" rx="10" ry="10" style="stroke:#222222;stroke-width:1.0;"/><rect fill="#F1F1F1" height="47.9375" rx="12.5" ry="12.5" style="stroke:#181818;stroke-width:0.5;" width="596" x="231.5" y="3019.4531"/><text fill="#000000" font-family="sans-serif" font-size="12" lengthAdjust="spacing" textLength="576" x="241.5" y="3040.5918">return new ListOffsetsRequest(new ListOffsetsRequestData(new ByteBufferAccessor(buffer),</text><text fill="#000000" font-family="sans-serif" font-size="12" lengthAdjust="spacing" textLength="108" x="241.5" y="3054.5605">version),version);</text><ellipse cx="529.5" cy="3098.3906" fill="none" rx="11" ry="11" style="stroke:#222222;stroke-width:1.0;"/><ellipse cx="529.5" cy="3098.3906" fill="#222222" rx="6" ry="6" style="stroke:#111111;stroke-width:1.0;"/><ellipse cx="529.5" cy="3129.3906" fill="none" rx="10" ry="10" style="stroke:#222222;stroke-width:1.5;"/><line style="stroke:#222222;stroke-width:2.5;" x1="523.3128" x2="535.6872" y1="3123.2034" y2="3135.5778"/><line style="stroke:#222222;stroke-width:2.5;" x1="535.6872" x2="523.3128" y1="3123.2034" y2="3135.5778"/><path d="M559.5,3149.3906 L559.5,3165.5234 L539.5,3169.5234 L559.5,3173.5234 L559.5,3189.6563 A0,0 0 0 0 559.5,3189.6563 L977.5,3189.6563 A0,0 0 0 0 977.5,3189.6563 L977.5,3159.3906 L967.5,3149.3906 L559.5,3149.3906 A0,0 0 0 0 559.5,3149.3906 " fill="#FEFFDD" style="stroke:#181818;stroke-width:0.5;"/><path d="M967.5,3149.3906 L967.5,3159.3906 L977.5,3159.3906 L967.5,3149.3906 " fill="#FEFFDD" style="stroke:#181818;stroke-width:0.5;"/><text fill="#000000" font-family="sans-serif" font-size="13" lengthAdjust="spacing" textLength="397" x="565.5" y="3166.4575">List&lt;ListOffsetsTopic&gt;toListOffsetsTopics(Map&lt;TopicPartition,</text><text fill="#000000" font-family="sans-serif" font-size="13" lengthAdjust="spacing" textLength="273" x="565.5" y="3181.5903">ListOffsetsPartition&gt;timestampsToSearch)</text><ellipse cx="529.5" cy="3169.5234" fill="#222222" rx="10" ry="10" style="stroke:#222222;stroke-width:1.0;"/><rect fill="#F1F1F1" height="33.9688" rx="12.5" ry="12.5" style="stroke:#181818;stroke-width:0.5;" width="269" x="395" y="3209.6563"/><text fill="#000000" font-family="sans-serif" font-size="12" lengthAdjust="spacing" textLength="249" x="405" y="3230.7949">topic.partitions().add(entry.getValue());</text><rect fill="#F1F1F1" height="33.9688" rx="12.5" ry="12.5" style="stroke:#181818;stroke-width:0.5;" width="271" x="394" y="3263.625"/><text fill="#000000" font-family="sans-serif" font-size="12" lengthAdjust="spacing" textLength="251" x="404" y="3284.7637">return new ArrayList&lt;&gt;(topics.values());</text><ellipse cx="529.5" cy="3328.5938" fill="none" rx="11" ry="11" style="stroke:#222222;stroke-width:1.0;"/><ellipse cx="529.5" cy="3328.5938" fill="#222222" rx="6" ry="6" style="stroke:#111111;stroke-width:1.0;"/><ellipse cx="529.5" cy="3359.5938" fill="none" rx="10" ry="10" style="stroke:#222222;stroke-width:1.5;"/><line style="stroke:#222222;stroke-width:2.5;" x1="523.3128" x2="535.6872" y1="3353.4066" y2="3365.7809"/><line style="stroke:#222222;stroke-width:2.5;" x1="535.6872" x2="523.3128" y1="3353.4066" y2="3365.7809"/><path d="M559.5,3379.5938 L559.5,3395.7266 L539.5,3399.7266 L559.5,3403.7266 L559.5,3419.8594 A0,0 0 0 0 559.5,3419.8594 L913.5,3419.8594 A0,0 0 0 0 913.5,3419.8594 L913.5,3389.5938 L903.5,3379.5938 L559.5,3379.5938 A0,0 0 0 0 559.5,3379.5938 " fill="#FEFFDD" style="stroke:#181818;stroke-width:0.5;"/><path d="M903.5,3379.5938 L903.5,3389.5938 L913.5,3389.5938 L903.5,3379.5938 " fill="#FEFFDD" style="stroke:#181818;stroke-width:0.5;"/><text fill="#000000" font-family="sans-serif" font-size="13" lengthAdjust="spacing" textLength="319" x="565.5" y="3396.6606">ListOffsetsTopicsingletonRequestData(Stringtopic,</text><text fill="#000000" font-family="sans-serif" font-size="13" lengthAdjust="spacing" textLength="333" x="565.5" y="3411.7935">intpartitionIndex,longtimestamp,intmaxNumOffsets)</text><ellipse cx="529.5" cy="3399.7266" fill="#222222" rx="10" ry="10" style="stroke:#222222;stroke-width:1.0;"/><rect fill="#F1F1F1" height="47.9375" rx="12.5" ry="12.5" style="stroke:#181818;stroke-width:0.5;" width="1037" x="11" y="3439.8594"/><text fill="#000000" font-family="sans-serif" font-size="12" lengthAdjust="spacing" textLength="281" x="21" y="3460.998">return new ListOffsetsTopic().setName(topic)</text><text fill="#000000" font-family="sans-serif" font-size="12" lengthAdjust="spacing" textLength="1017" x="21" y="3474.9668">.setPartitions(Collections.singletonList(new ListOffsetsPartition().setPartitionIndex(partitionIndex).setTimestamp(timestamp).setMaxNumOffsets(maxNumOffsets)));</text><ellipse cx="529.5" cy="3518.7969" fill="none" rx="11" ry="11" style="stroke:#222222;stroke-width:1.0;"/><ellipse cx="529.5" cy="3518.7969" fill="#222222" rx="6" ry="6" style="stroke:#111111;stroke-width:1.0;"/><ellipse cx="529.5" cy="3549.7969" fill="none" rx="10" ry="10" style="stroke:#222222;stroke-width:1.5;"/><line style="stroke:#222222;stroke-width:2.5;" x1="523.3128" x2="535.6872" y1="3543.6097" y2="3555.9841"/><line style="stroke:#222222;stroke-width:2.5;" x1="535.6872" x2="523.3128" y1="3543.6097" y2="3555.9841"/><line style="stroke:#181818;stroke-width:1.0;" x1="529.5" x2="529.5" y1="32.5664" y2="55.1328"/><polygon fill="#181818" points="525.5,45.1328,529.5,55.1328,533.5,45.1328,529.5,49.1328" style="stroke:#181818;stroke-width:1.0;"/><line style="stroke:#181818;stroke-width:1.0;" x1="529.5" x2="529.5" y1="103.0703" y2="123.0703"/><polygon fill="#181818" points="525.5,113.0703,529.5,123.0703,533.5,113.0703,529.5,117.0703" style="stroke:#181818;stroke-width:1.0;"/><line style="stroke:#181818;stroke-width:1.0;" x1="529.5" x2="529.5" y1="269.3359" y2="293.7383"/><polygon fill="#181818" points="525.5,283.7383,529.5,293.7383,533.5,283.7383,529.5,287.7383" style="stroke:#181818;stroke-width:1.0;"/><line style="stroke:#181818;stroke-width:1.0;" x1="605" x2="617" y1="257.3359" y2="257.3359"/><polygon fill="#181818" points="613,300.7227,617,310.7227,621,300.7227,617,304.7227" style="stroke:#181818;stroke-width:1.0;"/><line style="stroke:#181818;stroke-width:1.0;" x1="617" x2="617" y1="257.3359" y2="359.707"/><line style="stroke:#181818;stroke-width:1.0;" x1="617" x2="541.5" y1="359.707" y2="359.707"/><polygon fill="#181818" points="551.5,355.707,541.5,359.707,551.5,363.707,547.5,359.707" style="stroke:#181818;stroke-width:1.0;"/><line style="stroke:#181818;stroke-width:1.0;" x1="529.5" x2="529.5" y1="327.707" y2="347.707"/><polygon fill="#181818" points="525.5,337.707,529.5,347.707,533.5,337.707,529.5,341.707" style="stroke:#181818;stroke-width:1.0;"/><line style="stroke:#181818;stroke-width:1.0;" x1="529.5" x2="529.5" y1="215.2031" y2="245.3359"/><polygon fill="#181818" points="525.5,235.3359,529.5,245.3359,533.5,235.3359,529.5,239.3359" style="stroke:#181818;stroke-width:1.0;"/><line style="stroke:#181818;stroke-width:1.0;" x1="529.5" x2="529.5" y1="371.707" y2="391.707"/><polygon fill="#181818" points="525.5,381.707,529.5,391.707,533.5,381.707,529.5,385.707" style="stroke:#181818;stroke-width:1.0;"/><line style="stroke:#181818;stroke-width:1.0;" x1="529.5" x2="529.5" y1="439.6445" y2="459.6445"/><polygon fill="#181818" points="525.5,449.6445,529.5,459.6445,533.5,449.6445,529.5,453.6445" style="stroke:#181818;stroke-width:1.0;"/><line style="stroke:#181818;stroke-width:1.0;" x1="529.5" x2="529.5" y1="551.7773" y2="581.9102"/><polygon fill="#181818" points="525.5,571.9102,529.5,581.9102,533.5,571.9102,529.5,575.9102" style="stroke:#181818;stroke-width:1.0;"/><line style="stroke:#181818;stroke-width:1.0;" x1="529.5" x2="529.5" y1="629.8477" y2="649.8477"/><polygon fill="#181818" points="525.5,639.8477,529.5,649.8477,533.5,639.8477,529.5,643.8477" style="stroke:#181818;stroke-width:1.0;"/><line style="stroke:#181818;stroke-width:1.0;" x1="529.5" x2="529.5" y1="697.7852" y2="717.7852"/><polygon fill="#181818" points="525.5,707.7852,529.5,717.7852,533.5,707.7852,529.5,711.7852" style="stroke:#181818;stroke-width:1.0;"/><line style="stroke:#181818;stroke-width:1.0;" x1="529.5" x2="529.5" y1="770.3516" y2="792.918"/><polygon fill="#181818" points="525.5,782.918,529.5,792.918,533.5,782.918,529.5,786.918" style="stroke:#181818;stroke-width:1.0;"/><line style="stroke:#181818;stroke-width:1.0;" x1="529.5" x2="529.5" y1="826.8867" y2="846.8867"/><polygon fill="#181818" points="525.5,836.8867,529.5,846.8867,533.5,836.8867,529.5,840.8867" style="stroke:#181818;stroke-width:1.0;"/><line style="stroke:#181818;stroke-width:1.0;" x1="529.5" x2="529.5" y1="880.8555" y2="900.8555"/><polygon fill="#181818" points="525.5,890.8555,529.5,900.8555,533.5,890.8555,529.5,894.8555" style="stroke:#181818;stroke-width:1.0;"/><line style="stroke:#181818;stroke-width:1.0;" x1="529.5" x2="529.5" y1="985.4219" y2="1007.9883"/><polygon fill="#181818" points="525.5,997.9883,529.5,1007.9883,533.5,997.9883,529.5,1001.9883" style="stroke:#181818;stroke-width:1.0;"/><line style="stroke:#181818;stroke-width:1.0;" x1="529.5" x2="529.5" y1="1041.957" y2="1061.957"/><polygon fill="#181818" points="525.5,1051.957,529.5,1061.957,533.5,1051.957,529.5,1055.957" style="stroke:#181818;stroke-width:1.0;"/><line style="stroke:#181818;stroke-width:1.0;" x1="529.5" x2="529.5" y1="1146.5234" y2="1169.0898"/><polygon fill="#181818" points="525.5,1159.0898,529.5,1169.0898,533.5,1159.0898,529.5,1163.0898" style="stroke:#181818;stroke-width:1.0;"/><line style="stroke:#181818;stroke-width:1.0;" x1="529.5" x2="529.5" y1="1203.0586" y2="1223.0586"/><polygon fill="#181818" points="525.5,1213.0586,529.5,1223.0586,533.5,1213.0586,529.5,1217.0586" style="stroke:#181818;stroke-width:1.0;"/><line style="stroke:#181818;stroke-width:1.0;" x1="529.5" x2="529.5" y1="1315.1914" y2="1345.3242"/><polygon fill="#181818" points="525.5,1335.3242,529.5,1345.3242,533.5,1335.3242,529.5,1339.3242" style="stroke:#181818;stroke-width:1.0;"/><line style="stroke:#181818;stroke-width:1.0;" x1="529.5" x2="529.5" y1="1379.293" y2="1399.293"/><polygon fill="#181818" points="525.5,1389.293,529.5,1399.293,533.5,1389.293,529.5,1393.293" style="stroke:#181818;stroke-width:1.0;"/><line style="stroke:#181818;stroke-width:1.0;" x1="529.5" x2="529.5" y1="1433.2617" y2="1453.2617"/><polygon fill="#181818" points="525.5,1443.2617,529.5,1453.2617,533.5,1443.2617,529.5,1447.2617" style="stroke:#181818;stroke-width:1.0;"/><line style="stroke:#181818;stroke-width:1.0;" x1="529.5" x2="529.5" y1="1531.2305" y2="1555.6328"/><polygon fill="#181818" points="525.5,1545.6328,529.5,1555.6328,533.5,1545.6328,529.5,1549.6328" style="stroke:#181818;stroke-width:1.0;"/><line style="stroke:#181818;stroke-width:1.0;" x1="592" x2="636" y1="1519.2305" y2="1519.2305"/><polygon fill="#181818" points="632,1562.6172,636,1572.6172,640,1562.6172,636,1566.6172" style="stroke:#181818;stroke-width:1.0;"/><line style="stroke:#181818;stroke-width:1.0;" x1="636" x2="636" y1="1519.2305" y2="1621.6016"/><line style="stroke:#181818;stroke-width:1.0;" x1="636" x2="541.5" y1="1621.6016" y2="1621.6016"/><polygon fill="#181818" points="551.5,1617.6016,541.5,1621.6016,551.5,1625.6016,547.5,1621.6016" style="stroke:#181818;stroke-width:1.0;"/><line style="stroke:#181818;stroke-width:1.0;" x1="529.5" x2="529.5" y1="1589.6016" y2="1609.6016"/><polygon fill="#181818" points="525.5,1599.6016,529.5,1609.6016,533.5,1599.6016,529.5,1603.6016" style="stroke:#181818;stroke-width:1.0;"/><line style="stroke:#181818;stroke-width:1.0;" x1="529.5" x2="529.5" y1="1487.2305" y2="1507.2305"/><polygon fill="#181818" points="525.5,1497.2305,529.5,1507.2305,533.5,1497.2305,529.5,1501.2305" style="stroke:#181818;stroke-width:1.0;"/><line style="stroke:#181818;stroke-width:1.0;" x1="529.5" x2="529.5" y1="1633.6016" y2="1653.6016"/><polygon fill="#181818" points="525.5,1643.6016,529.5,1653.6016,533.5,1643.6016,529.5,1647.6016" style="stroke:#181818;stroke-width:1.0;"/><line style="stroke:#181818;stroke-width:1.0;" x1="479" x2="304.5" y1="1755.8672" y2="1755.8672"/><line style="stroke:#181818;stroke-width:1.0;" x1="304.5" x2="304.5" y1="1755.8672" y2="1777.8672"/><polygon fill="#181818" points="300.5,1767.8672,304.5,1777.8672,308.5,1767.8672,304.5,1771.8672" style="stroke:#181818;stroke-width:1.0;"/><line style="stroke:#181818;stroke-width:1.0;" x1="580" x2="754.5" y1="1755.8672" y2="1755.8672"/><line style="stroke:#181818;stroke-width:1.0;" x1="754.5" x2="754.5" y1="1755.8672" y2="1777.8672"/><polygon fill="#181818" points="750.5,1767.8672,754.5,1777.8672,758.5,1767.8672,754.5,1771.8672" style="stroke:#181818;stroke-width:1.0;"/><line style="stroke:#181818;stroke-width:1.0;" x1="304.5" x2="304.5" y1="1811.8359" y2="1843.8047"/><line style="stroke:#181818;stroke-width:1.0;" x1="304.5" x2="517.5" y1="1843.8047" y2="1843.8047"/><polygon fill="#181818" points="507.5,1839.8047,517.5,1843.8047,507.5,1847.8047,511.5,1843.8047" style="stroke:#181818;stroke-width:1.0;"/><line style="stroke:#181818;stroke-width:1.0;" x1="754.5" x2="754.5" y1="1825.8047" y2="1843.8047"/><line style="stroke:#181818;stroke-width:1.0;" x1="754.5" x2="541.5" y1="1843.8047" y2="1843.8047"/><polygon fill="#181818" points="551.5,1839.8047,541.5,1843.8047,551.5,1847.8047,547.5,1843.8047" style="stroke:#181818;stroke-width:1.0;"/><line style="stroke:#181818;stroke-width:1.0;" x1="529.5" x2="529.5" y1="1713.7344" y2="1743.8672"/><polygon fill="#181818" points="525.5,1733.8672,529.5,1743.8672,533.5,1733.8672,529.5,1737.8672" style="stroke:#181818;stroke-width:1.0;"/><line style="stroke:#181818;stroke-width:1.0;" x1="529.5" x2="529.5" y1="1855.8047" y2="1875.8047"/><polygon fill="#181818" points="525.5,1865.8047,529.5,1875.8047,533.5,1865.8047,529.5,1869.8047" style="stroke:#181818;stroke-width:1.0;"/><line style="stroke:#181818;stroke-width:1.0;" x1="529.5" x2="529.5" y1="1909.7734" y2="1929.7734"/><polygon fill="#181818" points="525.5,1919.7734,529.5,1929.7734,533.5,1919.7734,529.5,1923.7734" style="stroke:#181818;stroke-width:1.0;"/><line style="stroke:#181818;stroke-width:1.0;" x1="529.5" x2="529.5" y1="1963.7422" y2="1983.7422"/><polygon fill="#181818" points="525.5,1973.7422,529.5,1983.7422,533.5,1973.7422,529.5,1977.7422" style="stroke:#181818;stroke-width:1.0;"/><line style="stroke:#181818;stroke-width:1.0;" x1="529.5" x2="529.5" y1="2017.7109" y2="2037.7109"/><polygon fill="#181818" points="525.5,2027.7109,529.5,2037.7109,533.5,2027.7109,529.5,2031.7109" style="stroke:#181818;stroke-width:1.0;"/><line style="stroke:#181818;stroke-width:1.0;" x1="529.5" x2="529.5" y1="2071.6797" y2="2091.6797"/><polygon fill="#181818" points="525.5,2081.6797,529.5,2091.6797,533.5,2081.6797,529.5,2085.6797" style="stroke:#181818;stroke-width:1.0;"/><line style="stroke:#181818;stroke-width:1.0;" x1="529.5" x2="529.5" y1="2176.2461" y2="2198.8125"/><polygon fill="#181818" points="525.5,2188.8125,529.5,2198.8125,533.5,2188.8125,529.5,2192.8125" style="stroke:#181818;stroke-width:1.0;"/><line style="stroke:#181818;stroke-width:1.0;" x1="529.5" x2="529.5" y1="2232.7813" y2="2252.7813"/><polygon fill="#181818" points="525.5,2242.7813,529.5,2252.7813,533.5,2242.7813,529.5,2246.7813" style="stroke:#181818;stroke-width:1.0;"/><line style="stroke:#181818;stroke-width:1.0;" x1="529.5" x2="529.5" y1="2337.3477" y2="2359.9141"/><polygon fill="#181818" points="525.5,2349.9141,529.5,2359.9141,533.5,2349.9141,529.5,2353.9141" style="stroke:#181818;stroke-width:1.0;"/><line style="stroke:#181818;stroke-width:1.0;" x1="529.5" x2="529.5" y1="2393.8828" y2="2413.8828"/><polygon fill="#181818" points="525.5,2403.8828,529.5,2413.8828,533.5,2403.8828,529.5,2407.8828" style="stroke:#181818;stroke-width:1.0;"/><line style="stroke:#181818;stroke-width:1.0;" x1="529.5" x2="529.5" y1="2498.4492" y2="2521.0156"/><polygon fill="#181818" points="525.5,2511.0156,529.5,2521.0156,533.5,2511.0156,529.5,2515.0156" style="stroke:#181818;stroke-width:1.0;"/><line style="stroke:#181818;stroke-width:1.0;" x1="529.5" x2="529.5" y1="2554.9844" y2="2574.9844"/><polygon fill="#181818" points="525.5,2564.9844,529.5,2574.9844,533.5,2564.9844,529.5,2568.9844" style="stroke:#181818;stroke-width:1.0;"/><line style="stroke:#181818;stroke-width:1.0;" x1="529.5" x2="529.5" y1="2659.5508" y2="2682.1172"/><polygon fill="#181818" points="525.5,2672.1172,529.5,2682.1172,533.5,2672.1172,529.5,2676.1172" style="stroke:#181818;stroke-width:1.0;"/><line style="stroke:#181818;stroke-width:1.0;" x1="529.5" x2="529.5" y1="2716.0859" y2="2736.0859"/><polygon fill="#181818" points="525.5,2726.0859,529.5,2736.0859,533.5,2726.0859,529.5,2730.0859" style="stroke:#181818;stroke-width:1.0;"/><line style="stroke:#181818;stroke-width:1.0;" x1="529.5" x2="529.5" y1="2820.6523" y2="2843.2188"/><polygon fill="#181818" points="525.5,2833.2188,529.5,2843.2188,533.5,2833.2188,529.5,2837.2188" style="stroke:#181818;stroke-width:1.0;"/><line style="stroke:#181818;stroke-width:1.0;" x1="529.5" x2="529.5" y1="2877.1875" y2="2897.1875"/><polygon fill="#181818" points="525.5,2887.1875,529.5,2897.1875,533.5,2887.1875,529.5,2891.1875" style="stroke:#181818;stroke-width:1.0;"/><line style="stroke:#181818;stroke-width:1.0;" x1="529.5" x2="529.5" y1="2989.3203" y2="3019.4531"/><polygon fill="#181818" points="525.5,3009.4531,529.5,3019.4531,533.5,3009.4531,529.5,3013.4531" style="stroke:#181818;stroke-width:1.0;"/><line style="stroke:#181818;stroke-width:1.0;" x1="529.5" x2="529.5" y1="3067.3906" y2="3087.3906"/><polygon fill="#181818" points="525.5,3077.3906,529.5,3087.3906,533.5,3077.3906,529.5,3081.3906" style="stroke:#181818;stroke-width:1.0;"/><line style="stroke:#181818;stroke-width:1.0;" x1="529.5" x2="529.5" y1="3179.5234" y2="3209.6563"/><polygon fill="#181818" points="525.5,3199.6563,529.5,3209.6563,533.5,3199.6563,529.5,3203.6563" style="stroke:#181818;stroke-width:1.0;"/><line style="stroke:#181818;stroke-width:1.0;" x1="529.5" x2="529.5" y1="3243.625" y2="3263.625"/><polygon fill="#181818" points="525.5,3253.625,529.5,3263.625,533.5,3253.625,529.5,3257.625" style="stroke:#181818;stroke-width:1.0;"/><line style="stroke:#181818;stroke-width:1.0;" x1="529.5" x2="529.5" y1="3297.5938" y2="3317.5938"/><polygon fill="#181818" points="525.5,3307.5938,529.5,3317.5938,533.5,3307.5938,529.5,3311.5938" style="stroke:#181818;stroke-width:1.0;"/><line style="stroke:#181818;stroke-width:1.0;" x1="529.5" x2="529.5" y1="3409.7266" y2="3439.8594"/><polygon fill="#181818" points="525.5,3429.8594,529.5,3439.8594,533.5,3429.8594,529.5,3433.8594" style="stroke:#181818;stroke-width:1.0;"/><line style="stroke:#181818;stroke-width:1.0;" x1="529.5" x2="529.5" y1="3487.7969" y2="3507.7969"/><polygon fill="#181818" points="525.5,3497.7969,529.5,3507.7969,533.5,3497.7969,529.5,3501.7969" style="stroke:#181818;stroke-width:1.0;"/><!--MD5=[de135bf16aa790d55a95d33dbec22d54]
@startuml
!pragma layout smetana
start
note right
BuilderforReplica(shortallowedVersion,intreplicaId)
end note
:return new Builder((short)0,allowedVersion,
replicaId,IsolationLevel.READ_UNCOMMITTED);;
stop
end
start
note right
BuilderforConsumer(booleanrequireTimestamp,
IsolationLevelisolationLevel,booleanrequireMaxTimestamp)
end note
if (requireMaxTimestamp) then (yes) 
:minVersion=7;;
endif 
:return new Builder(minVersion,ApiKeys.LIST_OFFSETS.latestVersion(),
CONSUMER_REPLICA_ID,isolationLevel);;
stop
end
start
note right
constructor Builder(shortoldestAllowedVersion,
shortlatestAllowedVersion,intreplicaId,IsolationLevelisolationLevel)
end note
:super (ApiKeys.LIST_OFFSETS,oldestAllowedVersion,
latestAllowedVersion);;
:data=new ListOffsetsRequestData().setIsolationLevel(isolationLevel.id())
.setReplicaId(replicaId);;
end
start
note right
BuildersetTargetTimes(List<ListOffsetsTopic>topics)
end note
:data.setTopics(topics);;
:return this;;
stop
end
start
note right
ListOffsetsRequestbuild(shortversion)
end note
:return new ListOffsetsRequest(data,version);;
stop
end
start
note right
StringtoString()
end note
:return data.toString();;
stop
end
start
note right
constructor ListOffsetsRequest(ListOffsetsRequestDatadata,
shortversion)
end note
:super (ApiKeys.LIST_OFFSETS,version);;
:this.data=data;;
:duplicatePartitions=new HashSet<>();;
if (!partitions.add(tp)) then (yes) 
:duplicatePartitions.add(tp);;
endif 
end
start
note right
AbstractResponsegetErrorResponse(intthrottleTimeMs,
Throwablee)
end note
if (versionId==0) then (yes) 
:partitionResponse.setOldStyleOffsets(Collections.emptyList());;
else (no)
:partitionResponse.setOffset(ListOffsetsResponse.UNKNOWN_OFFSET)
.setTimestamp(ListOffsetsResponse.UNKNOWN_TIMESTAMP);;
endif 
:partitions.add(partitionResponse);;
:topicResponse.setPartitions(partitions);;
:responses.add(topicResponse);;
:return new ListOffsetsResponse(responseData);;
stop
end
start
note right
ListOffsetsRequestDatadata()
end note
:return data;;
stop
end
start
note right
intreplicaId()
end note
:return data.replicaId();;
stop
end
start
note right
IsolationLevelisolationLevel()
end note
:return IsolationLevel.forId(data.isolationLevel());;
stop
end
start
note right
List<ListOffsetsTopic>topics()
end note
:return data.topics();;
stop
end
start
note right
Set<TopicPartition>duplicatePartitions()
end note
:return duplicatePartitions;;
stop
end
start
note right
ListOffsetsRequestparse(ByteBufferbuffer,
shortversion)
end note
:return new ListOffsetsRequest(new ListOffsetsRequestData(new ByteBufferAccessor(buffer),
version),version);;
stop
end
start
note right
List<ListOffsetsTopic>toListOffsetsTopics(Map<TopicPartition,
ListOffsetsPartition>timestampsToSearch)
end note
:topic.partitions().add(entry.getValue());;
:return new ArrayList<>(topics.values());;
stop
end
start
note right
ListOffsetsTopicsingletonRequestData(Stringtopic,
intpartitionIndex,longtimestamp,intmaxNumOffsets)
end note
:return new ListOffsetsTopic().setName(topic)
.setPartitions(Collections.singletonList(new ListOffsetsPartition().setPartitionIndex(partitionIndex).setTimestamp(timestamp).setMaxNumOffsets(maxNumOffsets)));;
stop
end
@enduml

PlantUML version 1.2022.7(Mon Aug 22 17:01:30 UTC 2022)
(GPL source distribution)
Java Runtime: OpenJDK Runtime Environment
JVM: OpenJDK 64-Bit Server VM
Default Encoding: UTF-8
Language: en
Country: null
--></g></svg>