<svg xmlns="http://www.w3.org/2000/svg" xmlns:xlink="http://www.w3.org/1999/xlink" contentStyleType="text/css" data-diagram-type="ACTIVITY" height="505px" preserveAspectRatio="none" style="width:562px;height:505px;background:#FFFFFF;" version="1.1" viewBox="0 0 562 505" width="562px" zoomAndPan="magnify"><?plantuml 1.2026.6?><defs/><g><path d="M178.4844,15 L178.4844,31.1328 L158.4844,35.1328 L178.4844,39.1328 L178.4844,55.2656 A0,0 0 0 0 178.4844,55.2656 L541.147,55.2656 A0,0 0 0 0 541.147,55.2656 L541.147,25 L531.147,15 L178.4844,15 A0,0 0 0 0 178.4844,15" fill="#FEFFDD" style="stroke:#181818;stroke-width:0.5;"/><path d="M531.147,15 L531.147,25 L541.147,25 L531.147,15" fill="#FEFFDD" style="stroke:#181818;stroke-width:0.5;"/><text fill="#000000" font-family="sans-serif" font-size="13" lengthAdjust="spacing" textLength="341.6626" x="184.4844" y="32.0669">constructor UpdateFeaturesResult(final Map&lt;String,</text><text fill="#000000" font-family="sans-serif" font-size="13" lengthAdjust="spacing" textLength="191.6865" x="184.4844" y="47.1997">KafkaFuture&lt;Void&gt;&gt;futures)</text><ellipse cx="148.4844" cy="35.1328" fill="#222222" rx="10" ry="10" style="stroke:#222222;stroke-width:1;"/><rect fill="#F1F1F1" height="33.9688" rx="12.5" ry="12.5" style="stroke:#181818;stroke-width:0.5;" width="145.2266" x="75.8711" y="75.2656"/><text fill="#000000" font-family="sans-serif" font-size="12" lengthAdjust="spacing" textLength="125.2266" x="85.8711" y="96.4043">this.futures=futures;</text><ellipse cx="148.4844" cy="139.2344" fill="none" rx="10" ry="10" style="stroke:#222222;stroke-width:1.5;"/><line style="stroke:#222222;stroke-width:2.5;" x1="142.2972" x2="154.6716" y1="133.0472" y2="145.4216"/><line style="stroke:#222222;stroke-width:2.5;" x1="154.6716" x2="142.2972" y1="133.0472" y2="145.4216"/><path d="M178.4844,159.2344 L178.4844,167.8008 L158.4844,171.8008 L178.4844,175.8008 L178.4844,184.3672 A0,0 0 0 0 178.4844,184.3672 L473.5127,184.3672 A0,0 0 0 0 473.5127,184.3672 L473.5127,169.2344 L463.5127,159.2344 L178.4844,159.2344 A0,0 0 0 0 178.4844,159.2344" fill="#FEFFDD" style="stroke:#181818;stroke-width:0.5;"/><path d="M463.5127,159.2344 L463.5127,169.2344 L473.5127,169.2344 L463.5127,159.2344" fill="#FEFFDD" style="stroke:#181818;stroke-width:0.5;"/><text fill="#000000" font-family="sans-serif" font-size="13" lengthAdjust="spacing" textLength="274.0283" x="184.4844" y="176.3013">Map&lt;String,KafkaFuture&lt;Void&gt;&gt;values()</text><ellipse cx="148.4844" cy="171.8008" fill="#222222" rx="10" ry="10" style="stroke:#222222;stroke-width:1;"/><rect fill="#F1F1F1" height="33.9688" rx="12.5" ry="12.5" style="stroke:#181818;stroke-width:0.5;" width="107.7324" x="94.6182" y="204.3672"/><text fill="#000000" font-family="sans-serif" font-size="12" lengthAdjust="spacing" textLength="87.7324" x="104.6182" y="225.5059">return futures;</text><ellipse cx="148.4844" cy="269.3359" fill="none" rx="11" ry="11" style="stroke:#222222;stroke-width:1;"/><ellipse cx="148.4844" cy="269.3359" fill="#222222" rx="6" ry="6" style="stroke:#222222;stroke-width:1;"/><ellipse cx="148.4844" cy="300.3359" fill="none" rx="10" ry="10" style="stroke:#222222;stroke-width:1.5;"/><line style="stroke:#222222;stroke-width:2.5;" x1="142.2972" x2="154.6716" y1="294.1488" y2="306.5231"/><line style="stroke:#222222;stroke-width:2.5;" x1="154.6716" x2="142.2972" y1="294.1488" y2="306.5231"/><path d="M178.4844,320.3359 L178.4844,328.9023 L158.4844,332.9023 L178.4844,336.9023 L178.4844,345.4688 A0,0 0 0 0 178.4844,345.4688 L354.272,345.4688 A0,0 0 0 0 354.272,345.4688 L354.272,330.3359 L344.272,320.3359 L178.4844,320.3359 A0,0 0 0 0 178.4844,320.3359" fill="#FEFFDD" style="stroke:#181818;stroke-width:0.5;"/><path d="M344.272,320.3359 L344.272,330.3359 L354.272,330.3359 L344.272,320.3359" fill="#FEFFDD" style="stroke:#181818;stroke-width:0.5;"/><text fill="#000000" font-family="sans-serif" font-size="13" lengthAdjust="spacing" textLength="154.7876" x="184.4844" y="337.4028">KafkaFuture&lt;Void&gt;all()</text><ellipse cx="148.4844" cy="332.9023" fill="#222222" rx="10" ry="10" style="stroke:#222222;stroke-width:1;"/><rect fill="#F1F1F1" height="47.9375" rx="12.5" ry="12.5" style="stroke:#181818;stroke-width:0.5;" width="264.9688" x="16" y="365.4688"/><text fill="#000000" font-family="sans-serif" font-size="12" lengthAdjust="spacing" textLength="244.9688" x="26" y="386.6074">return KafkaFuture.allOf(futures.values()</text><text fill="#000000" font-family="sans-serif" font-size="12" lengthAdjust="spacing" textLength="184.9805" x="26" y="400.5762">.toArray(new KafkaFuture[0]));</text><ellipse cx="148.4844" cy="444.4063" fill="none" rx="11" ry="11" style="stroke:#222222;stroke-width:1;"/><ellipse cx="148.4844" cy="444.4063" fill="#222222" rx="6" ry="6" style="stroke:#222222;stroke-width:1;"/><ellipse cx="148.4844" cy="475.4063" fill="none" rx="10" ry="10" style="stroke:#222222;stroke-width:1.5;"/><line style="stroke:#222222;stroke-width:2.5;" x1="142.2972" x2="154.6716" y1="469.2191" y2="481.5934"/><line style="stroke:#222222;stroke-width:2.5;" x1="154.6716" x2="142.2972" y1="469.2191" y2="481.5934"/><line style="stroke:#181818;stroke-width:1;" x1="148.4844" x2="148.4844" y1="45.1328" y2="75.2656"/><polygon fill="#181818" points="144.4844,65.2656,148.4844,75.2656,152.4844,65.2656,148.4844,69.2656" style="stroke:#181818;stroke-width:1;stroke-linejoin:miter;stroke-miterlimit:10;"/><line style="stroke:#181818;stroke-width:1;" x1="148.4844" x2="148.4844" y1="109.2344" y2="129.2344"/><polygon fill="#181818" points="144.4844,119.2344,148.4844,129.2344,152.4844,119.2344,148.4844,123.2344" style="stroke:#181818;stroke-width:1;stroke-linejoin:miter;stroke-miterlimit:10;"/><line style="stroke:#181818;stroke-width:1;" x1="148.4844" x2="148.4844" y1="181.8008" y2="204.3672"/><polygon fill="#181818" points="144.4844,194.3672,148.4844,204.3672,152.4844,194.3672,148.4844,198.3672" style="stroke:#181818;stroke-width:1;stroke-linejoin:miter;stroke-miterlimit:10;"/><line style="stroke:#181818;stroke-width:1;" x1="148.4844" x2="148.4844" y1="238.3359" y2="258.3359"/><polygon fill="#181818" points="144.4844,248.3359,148.4844,258.3359,152.4844,248.3359,148.4844,252.3359" style="stroke:#181818;stroke-width:1;stroke-linejoin:miter;stroke-miterlimit:10;"/><line style="stroke:#181818;stroke-width:1;" x1="148.4844" x2="148.4844" y1="342.9023" y2="365.4688"/><polygon fill="#181818" points="144.4844,355.4688,148.4844,365.4688,152.4844,355.4688,148.4844,359.4688" style="stroke:#181818;stroke-width:1;stroke-linejoin:miter;stroke-miterlimit:10;"/><line style="stroke:#181818;stroke-width:1;" x1="148.4844" x2="148.4844" y1="413.4063" y2="433.4063"/><polygon fill="#181818" points="144.4844,423.4063,148.4844,433.4063,152.4844,423.4063,148.4844,427.4063" style="stroke:#181818;stroke-width:1;stroke-linejoin:miter;stroke-miterlimit:10;"/><?plantuml-src RSuz2y8m483XFRyYRYr8SVQZuD95H51q4OV3NjjWJChTHV7VQwLee9r2SYzFRj8Ir7VG5bu-YEOx2ZXGB42Yd1VKPEf6rDKx5WfNyQIFRGc21O84GjuZ1oj9PHnOlOLsUH0ohfwg3LGtA48NBK_Ub7bUVI-SAdIbxd0rbyPmrh-l-dEnw8BX3X4-j1zW0t8IsuIVkTD_bSMtu_J00sl7hAZBFickIdez-_sVYLyJmIjn-8pxy-oIfj4IRm00?></g></svg>