<?xml version="1.0" encoding="UTF-8" standalone="no"?><svg xmlns="http://www.w3.org/2000/svg" xmlns:xlink="http://www.w3.org/1999/xlink" contentStyleType="text/css" height="301px" preserveAspectRatio="none" style="width:510px;height:301px;background:#FFFFFF;" version="1.1" viewBox="0 0 510 301" width="510px" zoomAndPan="magnify"><defs/><g><path d="M165.5,10 L165.5,18.5664 L145.5,22.5664 L165.5,26.5664 L165.5,35.1328 A0,0 0 0 0 165.5,35.1328 L498.5,35.1328 A0,0 0 0 0 498.5,35.1328 L498.5,20 L488.5,10 L165.5,10 A0,0 0 0 0 165.5,10 " fill="#FEFFDD" style="stroke:#181818;stroke-width:0.5;"/><path d="M488.5,10 L488.5,20 L498.5,20 L488.5,10 " fill="#FEFFDD" style="stroke:#181818;stroke-width:0.5;"/><text fill="#000000" font-family="sans-serif" font-size="13" lengthAdjust="spacing" textLength="312" x="171.5" y="27.0669">constructor PayloadKeyType(int maxSizeInBytes)</text><ellipse cx="135.5" cy="22.5664" fill="#222222" rx="10" ry="10" style="stroke:#222222;stroke-width:1.0;"/><rect fill="#F1F1F1" height="33.9688" rx="12.5" ry="12.5" style="stroke:#181818;stroke-width:0.5;" width="249" x="11" y="55.1328"/><text fill="#000000" font-family="sans-serif" font-size="12" lengthAdjust="spacing" textLength="229" x="21" y="76.2715">this.maxSizeInBytes=maxSizeInBytes;</text><ellipse cx="135.5" cy="119.1016" fill="none" rx="10" ry="10" style="stroke:#222222;stroke-width:1.5;"/><line style="stroke:#222222;stroke-width:2.5;" x1="129.3128" x2="141.6872" y1="112.9144" y2="125.2887"/><line style="stroke:#222222;stroke-width:2.5;" x1="141.6872" x2="129.3128" y1="112.9144" y2="125.2887"/><path d="M165.5,139.1016 L165.5,147.668 L145.5,151.668 L165.5,155.668 L165.5,164.2344 A0,0 0 0 0 165.5,164.2344 L318.5,164.2344 A0,0 0 0 0 318.5,164.2344 L318.5,149.1016 L308.5,139.1016 L165.5,139.1016 A0,0 0 0 0 165.5,139.1016 " fill="#FEFFDD" style="stroke:#181818;stroke-width:0.5;"/><path d="M308.5,139.1016 L308.5,149.1016 L318.5,149.1016 L308.5,139.1016 " fill="#FEFFDD" style="stroke:#181818;stroke-width:0.5;"/><text fill="#000000" font-family="sans-serif" font-size="13" lengthAdjust="spacing" textLength="132" x="171.5" y="156.1685">int maxSizeInBytes()</text><ellipse cx="135.5" cy="151.668" fill="#222222" rx="10" ry="10" style="stroke:#222222;stroke-width:1.0;"/><rect fill="#F1F1F1" height="33.9688" rx="12.5" ry="12.5" style="stroke:#181818;stroke-width:0.5;" width="161" x="55" y="184.2344"/><text fill="#000000" font-family="sans-serif" font-size="12" lengthAdjust="spacing" textLength="141" x="65" y="205.373">return maxSizeInBytes;</text><ellipse cx="135.5" cy="249.2031" fill="none" rx="11" ry="11" style="stroke:#222222;stroke-width:1.0;"/><ellipse cx="135.5" cy="249.2031" fill="#222222" rx="6" ry="6" style="stroke:#111111;stroke-width:1.0;"/><ellipse cx="135.5" cy="280.2031" fill="none" rx="10" ry="10" style="stroke:#222222;stroke-width:1.5;"/><line style="stroke:#222222;stroke-width:2.5;" x1="129.3128" x2="141.6872" y1="274.0159" y2="286.3903"/><line style="stroke:#222222;stroke-width:2.5;" x1="141.6872" x2="129.3128" y1="274.0159" y2="286.3903"/><line style="stroke:#181818;stroke-width:1.0;" x1="135.5" x2="135.5" y1="32.5664" y2="55.1328"/><polygon fill="#181818" points="131.5,45.1328,135.5,55.1328,139.5,45.1328,135.5,49.1328" style="stroke:#181818;stroke-width:1.0;"/><line style="stroke:#181818;stroke-width:1.0;" x1="135.5" x2="135.5" y1="89.1016" y2="109.1016"/><polygon fill="#181818" points="131.5,99.1016,135.5,109.1016,139.5,99.1016,135.5,103.1016" style="stroke:#181818;stroke-width:1.0;"/><line style="stroke:#181818;stroke-width:1.0;" x1="135.5" x2="135.5" y1="161.668" y2="184.2344"/><polygon fill="#181818" points="131.5,174.2344,135.5,184.2344,139.5,174.2344,135.5,178.2344" style="stroke:#181818;stroke-width:1.0;"/><line style="stroke:#181818;stroke-width:1.0;" x1="135.5" x2="135.5" y1="218.2031" y2="238.2031"/><polygon fill="#181818" points="131.5,228.2031,135.5,238.2031,139.5,228.2031,135.5,232.2031" style="stroke:#181818;stroke-width:1.0;"/><!--MD5=[409ecc14d40396140314b1a3d290242e]
@startuml
!pragma layout smetana
start
note right
constructor PayloadKeyType(int maxSizeInBytes)
end note
:this.maxSizeInBytes=maxSizeInBytes;;
end
start
note right
int maxSizeInBytes()
end note
:return maxSizeInBytes;;
stop
end
@enduml

PlantUML version 1.2022.7(Mon Aug 22 17:01:30 UTC 2022)
(GPL source distribution)
Java Runtime: OpenJDK Runtime Environment
JVM: OpenJDK 64-Bit Server VM
Default Encoding: UTF-8
Language: en
Country: null
--></g></svg>