<?xml version="1.0" encoding="UTF-8" standalone="no"?><svg xmlns="http://www.w3.org/2000/svg" xmlns:xlink="http://www.w3.org/1999/xlink" contentStyleType="text/css" height="1377px" preserveAspectRatio="none" style="width:604px;height:1377px;background:#FFFFFF;" version="1.1" viewBox="0 0 604 1377" width="604px" zoomAndPan="magnify"><defs/><g><path d="M214.5,10 L214.5,18.5664 L194.5,22.5664 L214.5,26.5664 L214.5,35.1328 A0,0 0 0 0 214.5,35.1328 L592.5,35.1328 A0,0 0 0 0 592.5,35.1328 L592.5,20 L582.5,10 L214.5,10 A0,0 0 0 0 214.5,10 " fill="#FEFFDD" style="stroke:#181818;stroke-width:0.5;"/><path d="M582.5,10 L582.5,20 L592.5,20 L582.5,10 " fill="#FEFFDD" style="stroke:#181818;stroke-width:0.5;"/><text fill="#000000" font-family="sans-serif" font-size="13" lengthAdjust="spacing" textLength="357" x="220.5" y="27.0669">constructor RecordsSend(Trecords,intmaxBytesToWrite)</text><ellipse cx="184.5" cy="22.5664" fill="#222222" rx="10" ry="10" style="stroke:#222222;stroke-width:1.0;"/><rect fill="#F1F1F1" height="33.9688" rx="12.5" ry="12.5" style="stroke:#181818;stroke-width:0.5;" width="153" x="108" y="55.1328"/><text fill="#000000" font-family="sans-serif" font-size="12" lengthAdjust="spacing" textLength="133" x="118" y="76.2715">this.records=records</text><rect fill="#F1F1F1" height="33.9688" rx="12.5" ry="12.5" style="stroke:#181818;stroke-width:0.5;" width="269" x="50" y="109.1016"/><text fill="#000000" font-family="sans-serif" font-size="12" lengthAdjust="spacing" textLength="249" x="60" y="130.2402">this.maxBytesToWrite=maxBytesToWrite</text><rect fill="#F1F1F1" height="33.9688" rx="12.5" ry="12.5" style="stroke:#181818;stroke-width:0.5;" width="225" x="72" y="163.0703"/><text fill="#000000" font-family="sans-serif" font-size="12" lengthAdjust="spacing" textLength="205" x="82" y="184.209">this.remaining=maxBytesToWrite</text><ellipse cx="184.5" cy="227.0391" fill="none" rx="10" ry="10" style="stroke:#222222;stroke-width:1.5;"/><line style="stroke:#222222;stroke-width:2.5;" x1="178.3128" x2="190.6872" y1="220.8519" y2="233.2262"/><line style="stroke:#222222;stroke-width:2.5;" x1="190.6872" x2="178.3128" y1="220.8519" y2="233.2262"/><path d="M214.5,247.0391 L214.5,255.6055 L194.5,259.6055 L214.5,263.6055 L214.5,272.1719 A0,0 0 0 0 214.5,272.1719 L364.5,272.1719 A0,0 0 0 0 364.5,272.1719 L364.5,257.0391 L354.5,247.0391 L214.5,247.0391 A0,0 0 0 0 214.5,247.0391 " fill="#FEFFDD" style="stroke:#181818;stroke-width:0.5;"/><path d="M354.5,247.0391 L354.5,257.0391 L364.5,257.0391 L354.5,247.0391 " fill="#FEFFDD" style="stroke:#181818;stroke-width:0.5;"/><text fill="#000000" font-family="sans-serif" font-size="13" lengthAdjust="spacing" textLength="129" x="220.5" y="264.106">booleancompleted()</text><ellipse cx="184.5" cy="259.6055" fill="#222222" rx="10" ry="10" style="stroke:#222222;stroke-width:1.0;"/><rect fill="#F1F1F1" height="33.9688" rx="12.5" ry="12.5" style="stroke:#181818;stroke-width:0.5;" width="233" x="68" y="292.1719"/><text fill="#000000" font-family="sans-serif" font-size="12" lengthAdjust="spacing" textLength="213" x="78" y="313.3105">return remaining&lt;=0&amp;&amp;!pending;</text><ellipse cx="184.5" cy="357.1406" fill="none" rx="11" ry="11" style="stroke:#222222;stroke-width:1.0;"/><ellipse cx="184.5" cy="357.1406" fill="#222222" rx="6" ry="6" style="stroke:#111111;stroke-width:1.0;"/><ellipse cx="184.5" cy="388.1406" fill="none" rx="10" ry="10" style="stroke:#222222;stroke-width:1.5;"/><line style="stroke:#222222;stroke-width:2.5;" x1="178.3128" x2="190.6872" y1="381.9534" y2="394.3278"/><line style="stroke:#222222;stroke-width:2.5;" x1="190.6872" x2="178.3128" y1="381.9534" y2="394.3278"/><path d="M214.5,408.1406 L214.5,416.707 L194.5,420.707 L214.5,424.707 L214.5,433.2734 A0,0 0 0 0 214.5,433.2734 L498.5,433.2734 A0,0 0 0 0 498.5,433.2734 L498.5,418.1406 L488.5,408.1406 L214.5,408.1406 A0,0 0 0 0 214.5,408.1406 " fill="#FEFFDD" style="stroke:#181818;stroke-width:0.5;"/><path d="M488.5,408.1406 L488.5,418.1406 L498.5,418.1406 L488.5,408.1406 " fill="#FEFFDD" style="stroke:#181818;stroke-width:0.5;"/><text fill="#000000" font-family="sans-serif" font-size="13" lengthAdjust="spacing" textLength="263" x="220.5" y="425.2075">longwriteTo(TransferableChannelchannel)</text><ellipse cx="184.5" cy="420.707" fill="#222222" rx="10" ry="10" style="stroke:#222222;stroke-width:1.0;"/><rect fill="#F1F1F1" height="33.9688" rx="12.5" ry="12.5" style="stroke:#181818;stroke-width:0.5;" width="347" x="11" y="501.6758"/><text fill="#000000" font-family="sans-serif" font-size="12" lengthAdjust="spacing" textLength="327" x="21" y="522.8145">written=writeTo(channel,size()-remaining,remaining)</text><polygon fill="#F1F1F1" points="157,555.6445,212,555.6445,224,567.6445,212,579.6445,157,579.6445,145,567.6445,157,555.6445" style="stroke:#181818;stroke-width:0.5;"/><text fill="#000000" font-family="sans-serif" font-size="11" lengthAdjust="spacing" textLength="55" x="157" y="571.4526">written&lt;0</text><text fill="#000000" font-family="sans-serif" font-size="11" lengthAdjust="spacing" textLength="20" x="125" y="565.0503">yes</text><polygon fill="#F1F1F1" points="184.5,595.6445,196.5,607.6445,184.5,619.6445,172.5,607.6445,184.5,595.6445" style="stroke:#181818;stroke-width:0.5;"/><rect fill="#F1F1F1" height="33.9688" rx="12.5" ry="12.5" style="stroke:#181818;stroke-width:0.5;" width="139" x="115" y="639.6445"/><text fill="#000000" font-family="sans-serif" font-size="12" lengthAdjust="spacing" textLength="119" x="125" y="660.7832">remaining-=written</text><polygon fill="#F1F1F1" points="148,453.2734,221,453.2734,233,465.2734,221,477.2734,148,477.2734,136,465.2734,148,453.2734" style="stroke:#181818;stroke-width:0.5;"/><text fill="#000000" font-family="sans-serif" font-size="11" lengthAdjust="spacing" textLength="20" x="188.5" y="487.4839">yes</text><text fill="#000000" font-family="sans-serif" font-size="11" lengthAdjust="spacing" textLength="73" x="148" y="469.0815">remaining&gt;0</text><polygon fill="#F1F1F1" points="184.5,693.6133,196.5,705.6133,184.5,717.6133,172.5,705.6133,184.5,693.6133" style="stroke:#181818;stroke-width:0.5;"/><rect fill="#F1F1F1" height="33.9688" rx="12.5" ry="12.5" style="stroke:#181818;stroke-width:0.5;" width="258" x="55.5" y="737.6133"/><text fill="#000000" font-family="sans-serif" font-size="12" lengthAdjust="spacing" textLength="238" x="65.5" y="758.752">pending=channel.hasPendingWrites()</text><rect fill="#F1F1F1" height="33.9688" rx="12.5" ry="12.5" style="stroke:#181818;stroke-width:0.5;" width="243" x="63" y="839.9844"/><text fill="#000000" font-family="sans-serif" font-size="12" lengthAdjust="spacing" textLength="223" x="73" y="861.123">channel.write(EMPTY_BYTE_BUFFER)</text><polygon fill="#F1F1F1" points="111,791.582,258,791.582,270,803.582,258,815.582,111,815.582,99,803.582,111,791.582" style="stroke:#181818;stroke-width:0.5;"/><text fill="#000000" font-family="sans-serif" font-size="11" lengthAdjust="spacing" textLength="20" x="188.5" y="825.7925">yes</text><text fill="#000000" font-family="sans-serif" font-size="11" lengthAdjust="spacing" textLength="147" x="111" y="807.3901">remaining&lt;=0&amp;&amp;pending</text><polygon fill="#F1F1F1" points="184.5,893.9531,196.5,905.9531,184.5,917.9531,172.5,905.9531,184.5,893.9531" style="stroke:#181818;stroke-width:0.5;"/><rect fill="#F1F1F1" height="33.9688" rx="12.5" ry="12.5" style="stroke:#181818;stroke-width:0.5;" width="110" x="129.5" y="937.9531"/><text fill="#000000" font-family="sans-serif" font-size="12" lengthAdjust="spacing" textLength="90" x="139.5" y="959.0918">return written;</text><ellipse cx="184.5" cy="1002.9219" fill="none" rx="11" ry="11" style="stroke:#222222;stroke-width:1.0;"/><ellipse cx="184.5" cy="1002.9219" fill="#222222" rx="6" ry="6" style="stroke:#111111;stroke-width:1.0;"/><ellipse cx="184.5" cy="1033.9219" fill="none" rx="10" ry="10" style="stroke:#222222;stroke-width:1.5;"/><line style="stroke:#222222;stroke-width:2.5;" x1="178.3128" x2="190.6872" y1="1027.7347" y2="1040.1091"/><line style="stroke:#222222;stroke-width:2.5;" x1="190.6872" x2="178.3128" y1="1027.7347" y2="1040.1091"/><path d="M214.5,1053.9219 L214.5,1062.4883 L194.5,1066.4883 L214.5,1070.4883 L214.5,1079.0547 A0,0 0 0 0 214.5,1079.0547 L297.5,1079.0547 A0,0 0 0 0 297.5,1079.0547 L297.5,1063.9219 L287.5,1053.9219 L214.5,1053.9219 A0,0 0 0 0 214.5,1053.9219 " fill="#FEFFDD" style="stroke:#181818;stroke-width:0.5;"/><path d="M287.5,1053.9219 L287.5,1063.9219 L297.5,1063.9219 L287.5,1053.9219 " fill="#FEFFDD" style="stroke:#181818;stroke-width:0.5;"/><text fill="#000000" font-family="sans-serif" font-size="13" lengthAdjust="spacing" textLength="62" x="220.5" y="1070.9888">longsize()</text><ellipse cx="184.5" cy="1066.4883" fill="#222222" rx="10" ry="10" style="stroke:#222222;stroke-width:1.0;"/><rect fill="#F1F1F1" height="33.9688" rx="12.5" ry="12.5" style="stroke:#181818;stroke-width:0.5;" width="173" x="98" y="1099.0547"/><text fill="#000000" font-family="sans-serif" font-size="12" lengthAdjust="spacing" textLength="153" x="108" y="1120.1934">return maxBytesToWrite;</text><ellipse cx="184.5" cy="1164.0234" fill="none" rx="11" ry="11" style="stroke:#222222;stroke-width:1.0;"/><ellipse cx="184.5" cy="1164.0234" fill="#222222" rx="6" ry="6" style="stroke:#111111;stroke-width:1.0;"/><ellipse cx="184.5" cy="1195.0234" fill="none" rx="10" ry="10" style="stroke:#222222;stroke-width:1.5;"/><line style="stroke:#222222;stroke-width:2.5;" x1="178.3128" x2="190.6872" y1="1188.8363" y2="1201.2106"/><line style="stroke:#222222;stroke-width:2.5;" x1="190.6872" x2="178.3128" y1="1188.8363" y2="1201.2106"/><path d="M214.5,1215.0234 L214.5,1223.5898 L194.5,1227.5898 L214.5,1231.5898 L214.5,1240.1563 A0,0 0 0 0 214.5,1240.1563 L300.5,1240.1563 A0,0 0 0 0 300.5,1240.1563 L300.5,1225.0234 L290.5,1215.0234 L214.5,1215.0234 A0,0 0 0 0 214.5,1215.0234 " fill="#FEFFDD" style="stroke:#181818;stroke-width:0.5;"/><path d="M290.5,1215.0234 L290.5,1225.0234 L300.5,1225.0234 L290.5,1215.0234 " fill="#FEFFDD" style="stroke:#181818;stroke-width:0.5;"/><text fill="#000000" font-family="sans-serif" font-size="13" lengthAdjust="spacing" textLength="65" x="220.5" y="1232.0903">Trecords()</text><ellipse cx="184.5" cy="1227.5898" fill="#222222" rx="10" ry="10" style="stroke:#222222;stroke-width:1.0;"/><rect fill="#F1F1F1" height="33.9688" rx="12.5" ry="12.5" style="stroke:#181818;stroke-width:0.5;" width="115" x="127" y="1260.1563"/><text fill="#000000" font-family="sans-serif" font-size="12" lengthAdjust="spacing" textLength="95" x="137" y="1281.2949">return records;</text><ellipse cx="184.5" cy="1325.125" fill="none" rx="11" ry="11" style="stroke:#222222;stroke-width:1.0;"/><ellipse cx="184.5" cy="1325.125" fill="#222222" rx="6" ry="6" style="stroke:#111111;stroke-width:1.0;"/><ellipse cx="184.5" cy="1356.125" fill="none" rx="10" ry="10" style="stroke:#222222;stroke-width:1.5;"/><line style="stroke:#222222;stroke-width:2.5;" x1="178.3128" x2="190.6872" y1="1349.9378" y2="1362.3122"/><line style="stroke:#222222;stroke-width:2.5;" x1="190.6872" x2="178.3128" y1="1349.9378" y2="1362.3122"/><line style="stroke:#181818;stroke-width:1.0;" x1="184.5" x2="184.5" y1="32.5664" y2="55.1328"/><polygon fill="#181818" points="180.5,45.1328,184.5,55.1328,188.5,45.1328,184.5,49.1328" style="stroke:#181818;stroke-width:1.0;"/><line style="stroke:#181818;stroke-width:1.0;" x1="184.5" x2="184.5" y1="89.1016" y2="109.1016"/><polygon fill="#181818" points="180.5,99.1016,184.5,109.1016,188.5,99.1016,184.5,103.1016" style="stroke:#181818;stroke-width:1.0;"/><line style="stroke:#181818;stroke-width:1.0;" x1="184.5" x2="184.5" y1="143.0703" y2="163.0703"/><polygon fill="#181818" points="180.5,153.0703,184.5,163.0703,188.5,153.0703,184.5,157.0703" style="stroke:#181818;stroke-width:1.0;"/><line style="stroke:#181818;stroke-width:1.0;" x1="184.5" x2="184.5" y1="197.0391" y2="217.0391"/><polygon fill="#181818" points="180.5,207.0391,184.5,217.0391,188.5,207.0391,184.5,211.0391" style="stroke:#181818;stroke-width:1.0;"/><line style="stroke:#181818;stroke-width:1.0;" x1="184.5" x2="184.5" y1="269.6055" y2="292.1719"/><polygon fill="#181818" points="180.5,282.1719,184.5,292.1719,188.5,282.1719,184.5,286.1719" style="stroke:#181818;stroke-width:1.0;"/><line style="stroke:#181818;stroke-width:1.0;" x1="184.5" x2="184.5" y1="326.1406" y2="346.1406"/><polygon fill="#181818" points="180.5,336.1406,184.5,346.1406,188.5,336.1406,184.5,340.1406" style="stroke:#181818;stroke-width:1.0;"/><line style="stroke:#181818;stroke-width:1.0;" x1="145" x2="135" y1="567.6445" y2="567.6445"/><polygon fill="#181818" points="131,577.6445,135,587.6445,139,577.6445,135,581.6445" style="stroke:#181818;stroke-width:1.0;"/><line style="stroke:#181818;stroke-width:1.0;" x1="135" x2="135" y1="567.6445" y2="607.6445"/><line style="stroke:#181818;stroke-width:1.0;" x1="135" x2="172.5" y1="607.6445" y2="607.6445"/><polygon fill="#181818" points="162.5,603.6445,172.5,607.6445,162.5,611.6445,166.5,607.6445" style="stroke:#181818;stroke-width:1.0;"/><line style="stroke:#181818;stroke-width:1.0;" x1="224" x2="234" y1="567.6445" y2="567.6445"/><polygon fill="#181818" points="230,577.6445,234,587.6445,238,577.6445,234,581.6445" style="stroke:#181818;stroke-width:1.0;"/><line style="stroke:#181818;stroke-width:1.0;" x1="234" x2="234" y1="567.6445" y2="607.6445"/><line style="stroke:#181818;stroke-width:1.0;" x1="234" x2="196.5" y1="607.6445" y2="607.6445"/><polygon fill="#181818" points="206.5,603.6445,196.5,607.6445,206.5,611.6445,202.5,607.6445" style="stroke:#181818;stroke-width:1.0;"/><line style="stroke:#181818;stroke-width:1.0;" x1="184.5" x2="184.5" y1="535.6445" y2="555.6445"/><polygon fill="#181818" points="180.5,545.6445,184.5,555.6445,188.5,545.6445,184.5,549.6445" style="stroke:#181818;stroke-width:1.0;"/><line style="stroke:#181818;stroke-width:1.0;" x1="184.5" x2="184.5" y1="619.6445" y2="639.6445"/><polygon fill="#181818" points="180.5,629.6445,184.5,639.6445,188.5,629.6445,184.5,633.6445" style="stroke:#181818;stroke-width:1.0;"/><line style="stroke:#181818;stroke-width:1.0;" x1="184.5" x2="184.5" y1="477.2734" y2="501.6758"/><polygon fill="#181818" points="180.5,491.6758,184.5,501.6758,188.5,491.6758,184.5,495.6758" style="stroke:#181818;stroke-width:1.0;"/><line style="stroke:#181818;stroke-width:1.0;" x1="233" x2="368" y1="465.2734" y2="465.2734"/><polygon fill="#181818" points="364,577.6445,368,587.6445,372,577.6445,368,581.6445" style="stroke:#181818;stroke-width:1.0;"/><line style="stroke:#181818;stroke-width:1.0;" x1="368" x2="368" y1="465.2734" y2="705.6133"/><line style="stroke:#181818;stroke-width:1.0;" x1="368" x2="196.5" y1="705.6133" y2="705.6133"/><polygon fill="#181818" points="206.5,701.6133,196.5,705.6133,206.5,709.6133,202.5,705.6133" style="stroke:#181818;stroke-width:1.0;"/><line style="stroke:#181818;stroke-width:1.0;" x1="184.5" x2="184.5" y1="673.6133" y2="693.6133"/><polygon fill="#181818" points="180.5,683.6133,184.5,693.6133,188.5,683.6133,184.5,687.6133" style="stroke:#181818;stroke-width:1.0;"/><line style="stroke:#181818;stroke-width:1.0;" x1="184.5" x2="184.5" y1="430.707" y2="453.2734"/><polygon fill="#181818" points="180.5,443.2734,184.5,453.2734,188.5,443.2734,184.5,447.2734" style="stroke:#181818;stroke-width:1.0;"/><line style="stroke:#181818;stroke-width:1.0;" x1="184.5" x2="184.5" y1="717.6133" y2="737.6133"/><polygon fill="#181818" points="180.5,727.6133,184.5,737.6133,188.5,727.6133,184.5,731.6133" style="stroke:#181818;stroke-width:1.0;"/><line style="stroke:#181818;stroke-width:1.0;" x1="184.5" x2="184.5" y1="815.582" y2="839.9844"/><polygon fill="#181818" points="180.5,829.9844,184.5,839.9844,188.5,829.9844,184.5,833.9844" style="stroke:#181818;stroke-width:1.0;"/><line style="stroke:#181818;stroke-width:1.0;" x1="270" x2="316" y1="803.582" y2="803.582"/><polygon fill="#181818" points="312,846.9688,316,856.9688,320,846.9688,316,850.9688" style="stroke:#181818;stroke-width:1.0;"/><line style="stroke:#181818;stroke-width:1.0;" x1="316" x2="316" y1="803.582" y2="905.9531"/><line style="stroke:#181818;stroke-width:1.0;" x1="316" x2="196.5" y1="905.9531" y2="905.9531"/><polygon fill="#181818" points="206.5,901.9531,196.5,905.9531,206.5,909.9531,202.5,905.9531" style="stroke:#181818;stroke-width:1.0;"/><line style="stroke:#181818;stroke-width:1.0;" x1="184.5" x2="184.5" y1="873.9531" y2="893.9531"/><polygon fill="#181818" points="180.5,883.9531,184.5,893.9531,188.5,883.9531,184.5,887.9531" style="stroke:#181818;stroke-width:1.0;"/><line style="stroke:#181818;stroke-width:1.0;" x1="184.5" x2="184.5" y1="771.582" y2="791.582"/><polygon fill="#181818" points="180.5,781.582,184.5,791.582,188.5,781.582,184.5,785.582" style="stroke:#181818;stroke-width:1.0;"/><line style="stroke:#181818;stroke-width:1.0;" x1="184.5" x2="184.5" y1="917.9531" y2="937.9531"/><polygon fill="#181818" points="180.5,927.9531,184.5,937.9531,188.5,927.9531,184.5,931.9531" style="stroke:#181818;stroke-width:1.0;"/><line style="stroke:#181818;stroke-width:1.0;" x1="184.5" x2="184.5" y1="971.9219" y2="991.9219"/><polygon fill="#181818" points="180.5,981.9219,184.5,991.9219,188.5,981.9219,184.5,985.9219" style="stroke:#181818;stroke-width:1.0;"/><line style="stroke:#181818;stroke-width:1.0;" x1="184.5" x2="184.5" y1="1076.4883" y2="1099.0547"/><polygon fill="#181818" points="180.5,1089.0547,184.5,1099.0547,188.5,1089.0547,184.5,1093.0547" style="stroke:#181818;stroke-width:1.0;"/><line style="stroke:#181818;stroke-width:1.0;" x1="184.5" x2="184.5" y1="1133.0234" y2="1153.0234"/><polygon fill="#181818" points="180.5,1143.0234,184.5,1153.0234,188.5,1143.0234,184.5,1147.0234" style="stroke:#181818;stroke-width:1.0;"/><line style="stroke:#181818;stroke-width:1.0;" x1="184.5" x2="184.5" y1="1237.5898" y2="1260.1563"/><polygon fill="#181818" points="180.5,1250.1563,184.5,1260.1563,188.5,1250.1563,184.5,1254.1563" style="stroke:#181818;stroke-width:1.0;"/><line style="stroke:#181818;stroke-width:1.0;" x1="184.5" x2="184.5" y1="1294.125" y2="1314.125"/><polygon fill="#181818" points="180.5,1304.125,184.5,1314.125,188.5,1304.125,184.5,1308.125" style="stroke:#181818;stroke-width:1.0;"/><!--MD5=[503aa5493b92f19a1ae58ab01685379a]
@startuml
!pragma layout smetana
start
note right
constructor RecordsSend(Trecords,intmaxBytesToWrite)
end note
:this.records=records;
:this.maxBytesToWrite=maxBytesToWrite;
:this.remaining=maxBytesToWrite;
end
start
note right
booleancompleted()
end note
:return remaining<=0&&!pending;;
stop
end
start
note right
longwriteTo(TransferableChannelchannel)
end note
if (remaining>0) then (yes) 
:written=writeTo(channel,size()-remaining,remaining);
if (written<0) then (yes) 
endif 
:remaining-=written;
endif 
:pending=channel.hasPendingWrites();
if (remaining<=0&&pending) then (yes) 
:channel.write(EMPTY_BYTE_BUFFER);
endif 
:return written;;
stop
end
start
note right
longsize()
end note
:return maxBytesToWrite;;
stop
end
start
note right
Trecords()
end note
:return records;;
stop
end
@enduml

PlantUML version 1.2022.7(Mon Aug 22 17:01:30 UTC 2022)
(GPL source distribution)
Java Runtime: OpenJDK Runtime Environment
JVM: OpenJDK 64-Bit Server VM
Default Encoding: UTF-8
Language: en
Country: null
--></g></svg>