<?xml version="1.0" encoding="UTF-8" standalone="no"?><svg xmlns="http://www.w3.org/2000/svg" xmlns:xlink="http://www.w3.org/1999/xlink" contentStyleType="text/css" height="169px" preserveAspectRatio="none" style="width:473px;height:169px;background:#FFFFFF;" version="1.1" viewBox="0 0 473 169" width="473px" zoomAndPan="magnify"><defs/><g><!--MD5=[ee01301798ed4cf8169e8264c695abb9]
cluster org.apache.kafka.connect.mirror.formatters--><g id="cluster_org.apache.kafka.connect.mirror.formatters"><path d="M8.5,63 L357.5,63 A3.75,3.75 0 0 1 360,65.5 L367,85.2969 L463.5,85.2969 A2.5,2.5 0 0 1 466,87.7969 L466,159.5 A2.5,2.5 0 0 1 463.5,162 L8.5,162 A2.5,2.5 0 0 1 6,159.5 L6,65.5 A2.5,2.5 0 0 1 8.5,63 " fill="none" style="stroke:#000000;stroke-width:1.5;"/><line style="stroke:#000000;stroke-width:1.5;" x1="6" x2="367" y1="85.2969" y2="85.2969"/><text fill="#000000" font-family="sans-serif" font-size="14" font-weight="bold" lengthAdjust="spacing" textLength="348" x="10" y="77.9951">org.apache.kafka.connect.mirror.formatters</text></g><!--MD5=[f7d5ad6fb87f2ef8bc4f3eadbfaf744b]
class MessageFormatter--><g id="elem_MessageFormatter"><rect fill="#F1F1F1" height="48" id="MessageFormatter" rx="2.5" ry="2.5" style="stroke:#181818;stroke-width:0.5;" width="162" x="155" y="6"/><ellipse cx="170" cy="22" fill="#ADD1B2" rx="11" ry="11" style="stroke:#181818;stroke-width:1.0;"/><path d="M172.9688,27.6406 Q172.3906,27.9375 171.75,28.0781 Q171.1094,28.2344 170.4063,28.2344 Q167.9063,28.2344 166.5781,26.5938 Q165.2656,24.9375 165.2656,21.8125 Q165.2656,18.6875 166.5781,17.0313 Q167.9063,15.375 170.4063,15.375 Q171.1094,15.375 171.75,15.5313 Q172.4063,15.6875 172.9688,15.9844 L172.9688,18.7031 Q172.3438,18.125 171.75,17.8594 Q171.1563,17.5781 170.5313,17.5781 Q169.1875,17.5781 168.5,18.6563 Q167.8125,19.7188 167.8125,21.8125 Q167.8125,23.9063 168.5,24.9844 Q169.1875,26.0469 170.5313,26.0469 Q171.1563,26.0469 171.75,25.7813 Q172.3438,25.5 172.9688,24.9219 L172.9688,27.6406 Z " fill="#000000"/><text fill="#000000" font-family="sans-serif" font-size="14" lengthAdjust="spacing" textLength="130" x="184" y="26.8467">MessageFormatter</text><line style="stroke:#181818;stroke-width:0.5;" x1="156" x2="316" y1="38" y2="38"/><line style="stroke:#181818;stroke-width:0.5;" x1="156" x2="316" y1="46" y2="46"/></g><!--MD5=[e32fb81b654d21b1cef4089a9162694e]
class org.apache.kafka.connect.mirror.formatters.CheckpointFormatter--><g id="elem_org.apache.kafka.connect.mirror.formatters.CheckpointFormatter"><rect codeLine="3" fill="#F1F1F1" height="64.2969" id="org.apache.kafka.connect.mirror.formatters.CheckpointFormatter" rx="2.5" ry="2.5" style="stroke:#181818;stroke-width:0.5;" width="443" x="14.5" y="90"/><ellipse cx="158.75" cy="106" fill="#ADD1B2" rx="11" ry="11" style="stroke:#181818;stroke-width:1.0;"/><path d="M161.7188,111.6406 Q161.1406,111.9375 160.5,112.0781 Q159.8594,112.2344 159.1563,112.2344 Q156.6563,112.2344 155.3281,110.5938 Q154.0156,108.9375 154.0156,105.8125 Q154.0156,102.6875 155.3281,101.0313 Q156.6563,99.375 159.1563,99.375 Q159.8594,99.375 160.5,99.5313 Q161.1563,99.6875 161.7188,99.9844 L161.7188,102.7031 Q161.0938,102.125 160.5,101.8594 Q159.9063,101.5781 159.2813,101.5781 Q157.9375,101.5781 157.25,102.6563 Q156.5625,103.7188 156.5625,105.8125 Q156.5625,107.9063 157.25,108.9844 Q157.9375,110.0469 159.2813,110.0469 Q159.9063,110.0469 160.5,109.7813 Q161.0938,109.5 161.7188,108.9219 L161.7188,111.6406 Z " fill="#000000"/><text fill="#000000" font-family="sans-serif" font-size="14" lengthAdjust="spacing" textLength="146" x="179.25" y="110.8467">CheckpointFormatter</text><line style="stroke:#181818;stroke-width:0.5;" x1="15.5" x2="456.5" y1="122" y2="122"/><line style="stroke:#181818;stroke-width:0.5;" x1="15.5" x2="456.5" y1="130" y2="130"/><a href="././qc/connect/mirror/src/main/java/org/apache/kafka/connect/mirror/formatters/CheckpointFormatter.java.html#13" target="_top" title="././qc/connect/mirror/src/main/java/org/apache/kafka/connect/mirror/formatters/CheckpointFormatter.java.html#13" xlink:actuate="onRequest" xlink:href="././qc/connect/mirror/src/main/java/org/apache/kafka/connect/mirror/formatters/CheckpointFormatter.java.html#13" xlink:show="new" xlink:title="././qc/connect/mirror/src/main/java/org/apache/kafka/connect/mirror/formatters/CheckpointFormatter.java.html#13" xlink:type="simple"><rect fill="#F1F1F1" height="10" style="stroke:none;stroke-width:1.0;" width="20" x="20.5" y="138.6484"/><ellipse cx="25.5" cy="143.6484" fill="#84BE84" rx="3" ry="3" style="stroke:#038048;stroke-width:1.0;"/></a><a href="././qc/connect/mirror/src/main/java/org/apache/kafka/connect/mirror/formatters/CheckpointFormatter.java.html#13" target="_top" title="././qc/connect/mirror/src/main/java/org/apache/kafka/connect/mirror/formatters/CheckpointFormatter.java.html#13" xlink:actuate="onRequest" xlink:href="././qc/connect/mirror/src/main/java/org/apache/kafka/connect/mirror/formatters/CheckpointFormatter.java.html#13" xlink:show="new" xlink:title="././qc/connect/mirror/src/main/java/org/apache/kafka/connect/mirror/formatters/CheckpointFormatter.java.html#13" xlink:type="simple"><text fill="#000000" font-family="sans-serif" font-size="14" lengthAdjust="spacing" textLength="417" x="34.5" y="146.9951">writeTo(ConsumerRecord&lt;byte[],byte[]&gt;;PrintStream) : void</text></a></g><path d="M236,54.1772 C236,65.0104 236,78.07 236,89.7592 " fill="none" style="stroke:#181818;stroke-width:1.0;"/><polygon fill="#FFFFFF" points="236,54.1772,230,70.1772,242,70.1772,236,54.1772" style="stroke:#181818;stroke-width:1.0;"/><!--MD5=[f2df792ca8481a7130f8c25126576b80]
@startuml
!pragma layout smetana
MessageFormatter <|- - org.apache.kafka.connect.mirror.formatters.CheckpointFormatter
class org.apache.kafka.connect.mirror.formatters.CheckpointFormatter {
+ writeTo(ConsumerRecord<byte[],byte[]>;PrintStream) : void [[[././qc/connect/mirror/src/main/java/org/apache/kafka/connect/mirror/formatters/CheckpointFormatter.java.html#13]]]
} 
@enduml

PlantUML version 1.2022.7(Mon Aug 22 17:01:30 UTC 2022)
(GPL source distribution)
Java Runtime: OpenJDK Runtime Environment
JVM: OpenJDK 64-Bit Server VM
Default Encoding: UTF-8
Language: en
Country: null
--></g></svg>